<svg width="64px" height="64px" viewBox="0 0 64 64" xmlns="http://www.w3.org/2000/svg">
  <g fill="none" fill-rule="evenodd">
    <rect width="41" height="56" x="6" y="7" fill="#9F5757" rx="3"/>
    <circle cx="26.5" cy="3.5" r="2.5" fill="#FF78C7"/>
    <rect width="33" height="48" x="10" y="11" fill="#ECECEC"/>
    <path stroke="#979797" stroke-linecap="square" stroke-width="2" d="M16 19L35 19M16 23L28 23M16 27L22 27M26 27L32 27"/>
    <g transform="rotate(-45 71.724 -16.96)">
      <rect width="26" height="6" x="5" fill="#325AA6"/>
      <rect width="4" height="4" x="31" y="1" fill="#5EA7FF"/>
      <path stroke="#325AA6" stroke-linecap="square" stroke-width="2" d="M5 3L0 3M29 8L21 8M29 6L29 8"/>
    </g>
    <path fill="#FF78C7" d="M16,8 C16,5.790861 17.7904482,4 19.9993692,4 L33.0006308,4 C35.2094214,4 37,5.79535615 37,8 L37,12 L16,12 L16,8 Z"/>
    <path stroke="#325AA6" stroke-linecap="round" stroke-linejoin="round" stroke-width="2" d="M15.8109592,49.3681207 C15.8109592,49.3681207 19.2263045,41.1836513 20.2641715,42.9639716 C21.3020386,44.7442919 19.4647456,49.1688671 19.4647456,49.1688671 C19.4647456,49.1688671 20.8450515,45.5868241 21.948633,46.6183609 C23.0522146,47.6498976 23.0923065,49.8992627 23.0923065,49.8992627 L25.9759069,47.398193 C25.9759069,47.398193 27.4385066,51.2943393 29.6709909,50.596801"/>
  </g>
</svg>
