<svg xmlns="http://www.w3.org/2000/svg" xmlns:xlink="http://www.w3.org/1999/xlink" x="0px" y="0px" width="48px" height="48px" viewBox="0 0 48 48"><g transform="translate(0, 0)"><path fill="#eebc99" d="M43,46H5c-0.553,0-1-0.447-1-1v-6c0-0.553,0.447-1,1-1h38c0.553,0,1,0.447,1,1v6C44,45.553,43.553,46,43,46z
	"></path>
<path fill="#335262" d="M28,24V10l5.316-1.773C33.725,8.091,34,7.709,34,7.279V3c0-0.552-0.448-1-1-1H15c-0.552,0-1,0.448-1,1v4.279
	c0,0.43,0.275,0.813,0.684,0.949L20,10v14L4.735,29.088C3.102,29.633,2,31.161,2,32.883V40c0,0.552,0.448,1,1,1h42
	c0.552,0,1-0.448,1-1v-7.117c0-1.722-1.102-3.25-2.735-3.795L28,24z"></path></g></svg>