<svg xmlns="http://www.w3.org/2000/svg" xmlns:xlink="http://www.w3.org/1999/xlink" x="0px" y="0px" width="32px" height="32px" viewBox="0 0 32 32"><g transform="translate(0, 0)"><path fill="#2e7d32" d="M31,13H19v2h11v15H2V15h3v-2H1c-0.552,0-1,0.447-1,1v17c0,0.553,0.448,1,1,1h30c0.552,0,1-0.447,1-1V14
	C32,13.447,31.552,13,31,13z"></path>
<path fill="#2e7d32" d="M8,18c0.081,0,0.162-0.01,0.243-0.03l4-1c0.176-0.044,0.336-0.135,0.464-0.263l12-12
	c0.391-0.391,0.391-1.023,0-1.414l-3-3c-0.391-0.391-1.023-0.391-1.414,0l-12,12c-0.128,0.128-0.219,0.289-0.263,0.465l-1,4
	c-0.085,0.341,0.015,0.701,0.263,0.949C7.483,17.896,7.738,18,8,18z"></path>
<rect data-color="color-2" x="7" y="21" fill="#2e7d32" width="18" height="2"></rect>
<rect data-color="color-2" x="7" y="25" fill="#2e7d32" width="9" height="2"></rect>
<rect data-color="color-2" x="20" y="25" fill="#2e7d32" width="5" height="2"></rect></g></svg>