<svg xmlns="http://www.w3.org/2000/svg" xmlns:xlink="http://www.w3.org/1999/xlink" x="0px" y="0px" width="48px" height="48px" viewBox="0 0 48 48"><g transform="translate(0, 0)"><path fill="#BFDEE0" d="M46,47H2c-0.55225,0-1-0.44727-1-1V27c0-0.55273,0.44775-1,1-1h44c0.55225,0,1,0.44727,1,1v19
	C47,46.55273,46.55225,47,46,47z"></path>
<path fill="#444444" d="M39,34H23c-0.55225,0-1-0.44727-1-1s0.44775-1,1-1h16c0.55225,0,1,0.44727,1,1S39.55225,34,39,34z"></path>
<path fill="#444444" d="M39,41H9c-0.55225,0-1-0.44727-1-1s0.44775-1,1-1h30c0.55225,0,1,0.44727,1,1S39.55225,41,39,41z"></path>
<path fill="#444444" d="M27.70703,20.94678l-4-4c-0.39062-0.39062-1.02344-0.39062-1.41406,0l-12,12
	c-1.24652,1.24652-1.43689,3.13971-0.6015,4.6015l-1.3985,1.3985c-0.39062,0.39062-0.39062,1.02344,0,1.41406
	C8.48828,36.55615,8.74414,36.65381,9,36.65381s0.51172-0.09766,0.70703-0.29297l1.39838-1.39838
	C11.69196,35.29773,12.3429,35.48047,13,35.48047c0.98047,0,1.96094-0.37305,2.70703-1.11963l12-12
	C28.09766,21.97021,28.09766,21.3374,27.70703,20.94678z"></path>
<path fill="#EFD358" d="M36,23.65381c-0.25586,0-0.51172-0.09766-0.70703-0.29297c-0.39062-0.39062-0.39062-1.02344,0-1.41406
	l7.29297-7.29297l-2.29297-2.29297c-0.39062-0.39062-0.39062-1.02344,0-1.41406s1.02344-0.39062,1.41406,0l3,3
	c0.39062,0.39062,0.39062,1.02344,0,1.41406l-8,8C36.51172,23.55615,36.25586,23.65381,36,23.65381z"></path>
<path fill="#636363" d="M41.70703,2.94678c-2.5957-2.5957-6.81836-2.5957-9.41406,0l-12,12
	c-0.39062,0.39062-0.39062,1.02344,0,1.41406l8,8c0.19531,0.19531,0.45117,0.29297,0.70703,0.29297s0.51172-0.09766,0.70703-0.29297
	l12-12C44.30273,9.76562,44.30273,5.54199,41.70703,2.94678z"></path></g></svg>