<svg xmlns="http://www.w3.org/2000/svg" xmlns:xlink="http://www.w3.org/1999/xlink" x="0px" y="0px" width="48px" height="48px" viewBox="0 0 48 48"><g transform="translate(0, 0)"><path fill="#EFD358" d="M36.70703,21.29297l-12-12c-0.30566-0.30518-0.76855-0.37744-1.1543-0.1875l-12,6
	c-0.28125,0.14111-0.48047,0.40576-0.53613,0.71582l-4,22c-0.05957,0.32275,0.04395,0.65381,0.27637,0.88574
	C7.48242,38.89648,7.7373,39,8,39c0.05957,0,0.11914-0.00537,0.17871-0.01611l22-4c0.30957-0.05615,0.5752-0.25537,0.71582-0.53662
	l6-12C37.08691,22.06201,37.01172,21.59717,36.70703,21.29297z"></path>
<path fill="#444444" d="M43.70703,18.29297l-16-16c-0.39062-0.39062-1.02344-0.39062-1.41406,0l-5,5
	c-0.39062,0.39062-0.39062,1.02344,0,1.41406l16,16C37.48828,24.90234,37.74414,25,38,25s0.51172-0.09766,0.70703-0.29297l5-5
	C44.09766,19.31641,44.09766,18.68359,43.70703,18.29297z"></path>
<path fill="#B29930" d="M23.12134,22.87866c-1.17157-1.17157-3.07111-1.17157-4.24268,0
	c-0.90674,0.90674-1.10321,2.24628-0.60638,3.35016L7.29004,37.29541C6.90137,37.6875,6.90332,38.3208,7.2959,38.70996
	C7.49023,38.90332,7.74512,39,8,39c0.25684,0,0.51465-0.09863,0.70996-0.29541l10.95081-11.03491
	c1.1239,0.56335,2.52289,0.38934,3.46057-0.5484C24.29291,25.94971,24.29291,24.05023,23.12134,22.87866z"></path>
<path fill="#B3B3B3" d="M40,45H8c-0.55273,0-1-0.44775-1-1s0.44727-1,1-1h32c0.55273,0,1,0.44775,1,1S40.55273,45,40,45z"></path></g></svg>