<svg xmlns="http://www.w3.org/2000/svg" xmlns:xlink="http://www.w3.org/1999/xlink" x="0px" y="0px" width="48px" height="48px" viewBox="0 0 48 48"><g transform="translate(0, 0)"><path fill="#72C472" d="M44.7207,3.30664c-0.22754-0.23633-0.55859-0.34668-0.88184-0.29395
	c-0.8916,0.14648-21.93164,3.66602-30.5459,12.28027c-10.3623,10.3623-3.54053,22.40332-3.4707,22.52344
	c0.08838,0.15137,0.21484,0.27734,0.3667,0.36426c0.06641,0.03809,4.00781,2.24023,9.28857,2.24023
	c3.69531,0,8.04639-1.07812,12.18457-4.73047c0.26758-0.23633,0.38916-0.59766,0.31885-0.94727l-1.68555-8.37402l6.1626,1.59863
	c0.46436,0.11914,0.94482-0.10449,1.15186-0.5332c4.5166-9.36914,7.25586-22.67285,7.37012-23.23535
	C45.04541,3.87695,44.94873,3.54395,44.7207,3.30664z"></path>
<path fill="#4DA34D" d="M4,45c-0.25586,0-0.51172-0.09766-0.70703-0.29297c-0.39062-0.39062-0.39062-1.02344,0-1.41406l16-16
	c0.39062-0.39062,1.02344-0.39062,1.41406,0s0.39062,1.02344,0,1.41406l-16,16C4.51172,44.90234,4.25586,45,4,45z"></path></g></svg>