<svg xmlns="http://www.w3.org/2000/svg" xmlns:xlink="http://www.w3.org/1999/xlink" x="0px" y="0px" width="24px" height="24px" viewBox="0 0 24 24"><g transform="translate(0, 0)"><path d="M22,8H2c-.552,0-1,.448-1,1v14c0,.552,.448,1,1,1H22c.552,0,1-.448,1-1V9c0-.552-.448-1-1-1Zm-5,7c0,.552-.448,1-1,1H8c-.552,0-1-.448-1-1v-2.5c0-.276,.224-.5,.5-.5h1c.276,0,.5,.224,.5,.5v1.5h6v-1.5c0-.276,.224-.5,.5-.5h1c.276,0,.5,.224,.5,.5v2.5Z" fill="#da291c"></path><path data-color="color-2" d="M19,6H5c-.553,0-1-.447-1-1s.447-1,1-1h14c.553,0,1,.447,1,1s-.447,1-1,1Z" fill="#da291c"></path><path data-color="color-2" d="M16,2H8c-.553,0-1-.447-1-1s.447-1,1-1h8c.553,0,1,.447,1,1s-.447,1-1,1Z" fill="#da291c"></path></g></svg>