<svg xmlns="http://www.w3.org/2000/svg" xmlns:xlink="http://www.w3.org/1999/xlink" x="0px" y="0px" width="24px" height="24px" viewBox="0 0 24 24"><g transform="translate(0, 0)"><path d="M16.707,7.293c-.391-.391-1.023-.391-1.414,0l-3.293,3.293-3.293-3.293c-.391-.391-1.023-.391-1.414,0s-.391,1.023,0,1.414l3.293,3.293-3.293,3.293c-.391,.391-.391,1.023,0,1.414,.195,.195,.451,.293,.707,.293s.512-.098,.707-.293l3.293-3.293,3.293,3.293c.195,.195,.451,.293,.707,.293s.512-.098,.707-.293c.391-.391,.391-1.023,0-1.414l-3.293-3.293,3.293-3.293c.391-.391,.391-1.023,0-1.414Z" fill="#da291c"></path></g></svg>