<svg xmlns="http://www.w3.org/2000/svg" xmlns:xlink="http://www.w3.org/1999/xlink" x="0px" y="0px" width="24px" height="24px" viewBox="0 0 24 24"><g transform="translate(0, 0)"><path d="M22,21V3a3,3,0,0,0-3-3H7A3,3,0,0,0,4,3V13a1,1,0,0,0,2,0V3A1,1,0,0,1,7,2H19a1,1,0,0,1,1,1V21a1,1,0,0,1-1,1H10a1,1,0,0,0,0,2h9A3,3,0,0,0,22,21Z" fill="#2e7d32"></path><path data-color="color-2" d="M2,24a1,1,0,0,0,.707-.293L13,13.414l2.293,2.293A1,1,0,0,0,16,16a.987.987,0,0,0,.383-.076A1,1,0,0,0,17,15V9a1,1,0,0,0-1-1H10a1,1,0,0,0-.707,1.707L11.586,12,1.293,22.293A1,1,0,0,0,2,24Z" fill="#2e7d32"></path></g></svg>