<svg xmlns="http://www.w3.org/2000/svg" xmlns:xlink="http://www.w3.org/1999/xlink" x="0px" y="0px" width="32px" height="32px" viewBox="0 0 32 32"><g stroke-width="2" transform="translate(0, 0)"><polyline data-cap="butt" fill="none" stroke="#2196f3" stroke-width="2" stroke-miterlimit="10" points="20,1 20,9 28,9 " stroke-linejoin="miter" stroke-linecap="butt"></polyline>
<polyline fill="none" stroke="#2196f3" stroke-width="2" stroke-linecap="square" stroke-miterlimit="10" points="28,13 28,9 20,1 
	4,1 4,13 " stroke-linejoin="miter"></polyline>
<polyline fill="none" stroke="#2196f3" stroke-width="2" stroke-linecap="square" stroke-miterlimit="10" points="4,27 4,31 28,31 
	28,27 " stroke-linejoin="miter"></polyline>
<path data-color="color-2" data-stroke="none" fill="#2196f3" d="M11.5,18.5c-0.4,0-0.7,0.2-0.9,0.5s-0.3,0.7-0.3,1.2c0,1.1,0.4,1.6,1.3,1.6
	c0.3,0,0.5,0,0.7-0.1s0.5-0.2,0.7-0.3v1.3c-0.5,0.2-1,0.3-1.6,0.3c-0.9,0-1.5-0.2-2-0.8s-0.7-1.2-0.7-2.2c0-0.6,0.1-1.1,0.3-1.6
	s0.5-0.8,1-1s0.9-0.4,1.5-0.4c0.6,0,1.2,0.1,1.8,0.4l-0.5,1.2c-0.2-0.1-0.4-0.2-0.6-0.2S11.7,18.5,11.5,18.5z" stroke-linejoin="miter" stroke-linecap="square"></path>
<path data-color="color-2" data-stroke="none" fill="#2196f3" d="M17.9,21.3c0,0.4-0.1,0.7-0.3,0.9s-0.4,0.5-0.8,0.6s-0.7,0.2-1.2,0.2
	c-0.4,0-0.7,0-1-0.1s-0.5-0.1-0.8-0.3v-1.4c0.3,0.2,0.6,0.3,0.9,0.4s0.6,0.1,0.9,0.1c0.2,0,0.4,0,0.5-0.1s0.2-0.2,0.2-0.3
	c0-0.1,0-0.1-0.1-0.2S16.1,21.1,16,21s-0.3-0.2-0.8-0.4c-0.4-0.2-0.7-0.3-0.8-0.5s-0.3-0.3-0.4-0.5s-0.1-0.4-0.1-0.7
	c0-0.5,0.2-0.9,0.6-1.2s0.9-0.4,1.6-0.4c0.6,0,1.2,0.1,1.8,0.4l-0.5,1.2c-0.5-0.2-1-0.4-1.4-0.4c-0.2,0-0.3,0-0.4,0.1
	s-0.1,0.2-0.1,0.3c0,0.1,0.1,0.2,0.2,0.3s0.4,0.2,0.9,0.5c0.5,0.2,0.8,0.5,1,0.7S17.9,20.9,17.9,21.3z" stroke-linejoin="miter" stroke-linecap="square"></path>
<path data-color="color-2" data-stroke="none" fill="#2196f3" d="M22,17.3h1.7L21.8,23H20l-1.9-5.7h1.7l0.8,2.9c0.2,0.6,0.2,1.1,0.3,1.3
	c0-0.2,0.1-0.4,0.1-0.7s0.1-0.5,0.1-0.6L22,17.3z" stroke-linejoin="miter" stroke-linecap="square"></path>
<rect x="1" y="13" fill="none" stroke="#2196f3" stroke-width="2" stroke-linecap="square" stroke-miterlimit="10" width="30" height="14" stroke-linejoin="miter"></rect></g></svg>