<svg xmlns="http://www.w3.org/2000/svg" xmlns:xlink="http://www.w3.org/1999/xlink" x="0px" y="0px" width="16px" height="16px" viewBox="0 0 16 16"><g transform="translate(0, 0)"><path d="M6,14H2V2H12V5.5L14,7V1a1,1,0,0,0-1-1H1A1,1,0,0,0,0,1V15a1,1,0,0,0,1,1H6Z" fill="#2196f3"></path><polygon points="12 8 8 11 8 16 11 16 11 13 13.035 13 13.035 16 16 16 16 11 12 8" fill="#2196f3" data-color="color-2"></polygon><rect x="4" y="4" width="6" height="1" fill="#2196f3"></rect><rect x="4" y="7" width="6" height="1" fill="#2196f3"></rect><rect x="4" y="10" width="3" height="1" fill="#2196f3"></rect></g></svg>