<svg xmlns="http://www.w3.org/2000/svg" xmlns:xlink="http://www.w3.org/1999/xlink" x="0px" y="0px" width="24px" height="24px" viewBox="0 0 24 24"><g transform="translate(0, 0)"><path d="M22.707,21.293l-5.682-5.682c1.233-1.54,1.975-3.489,1.975-5.611C19,5.038,14.962,1,10,1S1,5.038,1,10s4.038,9,9,9c2.122,0,4.071-.742,5.611-1.975l5.682,5.682c.195,.195,.451,.293,.707,.293s.512-.098,.707-.293c.391-.391,.391-1.023,0-1.414Zm-12.707-4.293c-3.86,0-7-3.14-7-7S6.14,3,10,3s7,3.14,7,7-3.14,7-7,7Z" fill="#2196f3"></path><circle cx="10" cy="7" r="2" fill="#2196f3" data-color="color-2"></circle><path d="M10,10h0c1.76,0,3.254,1.136,3.789,2.715,.214,.633-.294,1.285-.962,1.285H7.173c-.668,0-1.177-.652-.962-1.285,.535-1.579,2.029-2.715,3.789-2.715Z" fill="#2196f3" data-color="color-2"></path></g></svg>