<svg xmlns="http://www.w3.org/2000/svg" xmlns:xlink="http://www.w3.org/1999/xlink" x="0px" y="0px" width="32px" height="32px" viewBox="0 0 32 32"><g stroke-width="2" transform="translate(0, 0)"><path fill="none" stroke="#1976d2" stroke-width="2" stroke-linecap="square" stroke-miterlimit="10" d="M16,5.1
	C16,2.8,14.2,1,11.9,1c-1.8,0-3.3,1.2-3.8,2.8c-0.1,0-0.2,0-0.2,0C4.1,3.7,1,6.8,1,10.5c0,1.8,0.7,3.5,1.9,4.7C1.8,16,1,17.3,1,18.7
	c0,1.4,0.7,2.6,1.7,3.3c-0.2,0.7-0.4,1.4-0.4,2.1c0,3.8,3.1,6.8,6.8,6.8s6.8-3.1,6.8-6.8V14" stroke-linejoin="miter"></path>
<path fill="none" stroke="#1976d2" stroke-width="2" stroke-linecap="square" stroke-miterlimit="10" d="M16,5.1
	C16,2.8,17.8,1,20.1,1c1.8,0,3.3,1.2,3.8,2.8c0.1,0,0.2,0,0.2,0c3.8,0,6.8,3.1,6.8,6.8c0,1.8-0.7,3.5-1.9,4.7c1.1,0.7,1.9,2,1.9,3.5
	c0,1.4-0.7,2.6-1.7,3.3c0.2,0.7,0.4,1.4,0.4,2.1c0,3.8-3.1,6.8-6.8,6.8S16,27.9,16,24.2" stroke-linejoin="miter"></path>
<path fill="none" stroke="#1976d2" stroke-width="2" stroke-linecap="square" stroke-miterlimit="10" d="M7.8,17.4
	c-1.9,0-3.7-0.8-4.9-2.1" stroke-linejoin="miter"></path>
<path fill="none" stroke="#1976d2" stroke-width="2" stroke-linecap="square" stroke-miterlimit="10" d="M24.2,17.4
	c1.9,0,3.7-0.8,4.9-2.1" stroke-linejoin="miter"></path>
<path fill="none" stroke="#1976d2" stroke-width="2" stroke-linecap="square" stroke-miterlimit="10" d="M16,5.1C16,7.4,14.3,9,12,9
	" stroke-linejoin="miter"></path>
<path fill="none" stroke="#1976d2" stroke-width="2" stroke-linecap="square" stroke-miterlimit="10" d="M16,5.1C16,7.4,17.7,9,20,9
	" stroke-linejoin="miter"></path>
<path fill="none" stroke="#1976d2" stroke-width="2" stroke-linecap="square" stroke-miterlimit="10" d="M10.5,21.2
	c-1.6-0.6-2.7-2.1-2.7-3.9c0-1.2,0.5-2.3,1.4-3" stroke-linejoin="miter"></path>
<path fill="none" stroke="#1976d2" stroke-width="2" stroke-linecap="square" stroke-miterlimit="10" d="M21.5,21.2
	c1.6-0.6,2.7-2.1,2.7-3.9c0-1.2-0.5-2.3-1.4-3" stroke-linejoin="miter"></path></g></svg>