<svg xmlns="http://www.w3.org/2000/svg" xmlns:xlink="http://www.w3.org/1999/xlink" x="0px" y="0px" width="64px" height="64px" viewBox="0 0 64 64"><g transform="translate(0, 0)"><circle cx="32" cy="38" r="2" fill="#da291c"></circle><path d="M56.242,8.031l-24-6a.968.968,0,0,0-.484,0l-24,6A1,1,0,0,0,7,9V37a25,25,0,0,0,50,0V9A1,1,0,0,0,56.242,8.031ZM25,23a7,7,0,0,1,14,0v5H37V23a5,5,0,0,0-10,0v5H25ZM43,45a1,1,0,0,1-1,1H22a1,1,0,0,1-1-1V31a1,1,0,0,1,1-1H42a1,1,0,0,1,1,1Z" fill="#da291c"></path></g></svg>