<svg xmlns="http://www.w3.org/2000/svg" xmlns:xlink="http://www.w3.org/1999/xlink" x="0px" y="0px" width="32px" height="32px" viewBox="0 0 32 32"><g transform="translate(0, 0)"><path d="M3,14a1,1,0,0,0,.707-.293L12,5.414l7.293,7.293a1,1,0,0,0,1.414,0l9-9a1,1,0,1,0-1.414-1.414L20,10.586,12.707,3.293a1,1,0,0,0-1.414,0l-9,9A1,1,0,0,0,3,14Z" fill="#0288d1" data-color="color-2"></path><rect x="18" y="21" width="4" height="9" rx="0.5" fill="#0288d1"></rect><rect x="26" y="12" width="4" height="18" rx="0.5" fill="#0288d1"></rect><rect x="10" y="12" width="4" height="18" rx="0.5" fill="#0288d1"></rect><rect x="2" y="21" width="4" height="9" rx="0.5" fill="#0288d1"></rect></g></svg>