<svg xmlns="http://www.w3.org/2000/svg" xmlns:xlink="http://www.w3.org/1999/xlink" x="0px" y="0px" width="32px" height="32px" viewBox="0 0 32 32"><g stroke-width="2" transform="translate(0, 0)"><polygon points="22.213 1 9.787 1 1 9.787 1 22.213 9.787 31 22.213 31 31 22.213 31 9.787 22.213 1" fill="none" stroke="#da291c" stroke-linecap="square" stroke-miterlimit="10" stroke-width="2" stroke-linejoin="miter"></polygon><path d="M4.644,17.313a1.034,1.034,0,0,1,.719.335,2.066,2.066,0,0,0,1.409.594c.714,0,1.1-.259,1.1-.729,0-.379-.3-.614-1.019-.769l-.938-.215c-1.229-.259-1.833-.894-1.833-1.937,0-1.309,1.019-2.138,2.617-2.138a3.142,3.142,0,0,1,2.122.69,1.2,1.2,0,0,1,.449.873.6.6,0,0,1-.644.615.927.927,0,0,1-.639-.295,1.635,1.635,0,0,0-1.268-.584c-.6,0-.984.274-.984.7,0,.374.289.639.924.764l.948.205c1.269.254,1.883.879,1.883,1.912,0,1.344-1.093,2.208-2.8,2.208a3.339,3.339,0,0,1-2.238-.71A1.218,1.218,0,0,1,4,17.993.649.649,0,0,1,4.644,17.313Z" fill="#da291c" data-cap="butt" data-color="color-2" data-stroke="none" stroke-linecap="butt" stroke-linejoin="miter"></path><path d="M11.73,18.577V13.933H10.437a.677.677,0,0,1,0-1.354h4.25a.677.677,0,0,1,0,1.354h-1.3v4.644a.828.828,0,1,1-1.653,0Z" fill="#da291c" data-cap="butt" data-color="color-2" data-stroke="none" stroke-linecap="butt" stroke-linejoin="miter"></path><path d="M15.63,15.61a2.837,2.837,0,0,1,3.012-3.156,2.835,2.835,0,0,1,3.006,3.156v.814a2.815,2.815,0,0,1-3.006,3.122,2.817,2.817,0,0,1-3.012-3.122Zm1.653.814c0,1.114.5,1.773,1.359,1.773S20,17.538,20,16.424V15.6c0-1.128-.509-1.8-1.353-1.8s-1.359.669-1.359,1.8Z" fill="#da291c" data-cap="butt" data-color="color-2" data-stroke="none" stroke-linecap="butt" stroke-linejoin="miter"></path><path d="M22.732,18.557V13.708c0-.814.3-1.129,1.078-1.129h1.753A2.222,2.222,0,0,1,28,14.891a2.223,2.223,0,0,1-2.522,2.327h-1.1v1.339a.783.783,0,0,1-.829.889C23.026,19.446,22.732,19.126,22.732,18.557Zm2.4-2.567c.854,0,1.233-.28,1.233-1.069a.96.96,0,0,0-1.049-1.068h-.933V15.99Z" fill="#da291c" data-cap="butt" data-color="color-2" data-stroke="none" stroke-linecap="butt" stroke-linejoin="miter"></path></g></svg>