<svg xmlns="http://www.w3.org/2000/svg" xmlns:xlink="http://www.w3.org/1999/xlink" x="0px" y="0px" width="16px" height="16px" viewBox="0 0 16 16"><g transform="translate(0, 0)"><g class="nc-loop-bars-anim-3-icon-f"><path d="M15,9H1A1,1,0,0,1,1,7H15a1,1,0,0,1,0,2Z" fill="#2196f3"></path><path d="M15,9H1A1,1,0,0,1,1,7H15a1,1,0,0,1,0,2Z" fill="#2196f3" opacity="0.7" data-color="color-2"></path><path d="M15,9H1A1,1,0,0,1,1,7H15a1,1,0,0,1,0,2Z" fill="#2196f3" opacity="0.4"></path></g><style>.nc-loop-bars-anim-3-icon-f,.nc-loop-bars-anim-3-icon-f>*{--animation-duration:1.5s;transform-origin:50% 50%}.nc-loop-bars-anim-3-icon-f{animation:nc-loop-bars-anim-3 var(--animation-duration) infinite cubic-bezier(.65,.05,.36,1)}.nc-loop-bars-anim-3-icon-f>:nth-child(1){animation:nc-loop-bars-anim-3-sub-1 var(--animation-duration) infinite linear}.nc-loop-bars-anim-3-icon-f>:nth-child(2){animation:nc-loop-bars-anim-3-sub-2 var(--animation-duration) infinite linear}.nc-loop-bars-anim-3-icon-f>:nth-child(3){animation:nc-loop-bars-anim-3-sub-3 var(--animation-duration) infinite linear}@keyframes nc-loop-bars-anim-3{0%{transform:rotate(0)}100%{transform:rotate(420deg)}}@keyframes nc-loop-bars-anim-3-sub-1{0%,10%{transform:rotate(0)}100%,30%{transform:rotate(120deg)}}@keyframes nc-loop-bars-anim-3-sub-2{0%,10%{transform:rotate(0)}30%,70%{transform:rotate(60deg)}100%{transform:rotate(120deg)}}@keyframes nc-loop-bars-anim-3-sub-3{0%,70%{transform:rotate(0)}100%{transform:rotate(120deg)}}</style></g></svg>