<svg version="1.1" xmlns="http://www.w3.org/2000/svg" viewBox="0 0 2085.780431525058 864.8336122358716" width="2085.780431525058" height="864.8336122358716">
  <!-- svg-source:excalidraw -->
  
  <defs>
    <style class="style-fonts">
      @font-face {
        font-family: "Virgil";
        src: url("https://excalidraw.com/Virgil.woff2");
      }
      @font-face {
        font-family: "Cascadia";
        src: url("https://excalidraw.com/Cascadia.woff2");
      }
      @font-face {
        font-family: "Assistant";
        src: url("https://excalidraw.com/Assistant-Regular.woff2");
      }
    </style>
    
  </defs>
  <g stroke-linecap="round" transform="translate(1084.8004622079784 10) rotate(0 34 37)"><path d="M43.92 0.83 C49.91 2.37, 56.42 9.59, 60.53 15.36 C64.64 21.13, 68.23 28.49, 68.59 35.46 C68.95 42.42, 66.51 51.23, 62.69 57.15 C58.87 63.07, 52.01 68.37, 45.67 70.97 C39.33 73.56, 31.17 74.52, 24.63 72.71 C18.09 70.91, 10.62 65.82, 6.44 60.12 C2.26 54.42, -0.27 45.95, -0.44 38.51 C-0.61 31.08, 1.63 21.68, 5.42 15.5 C9.22 9.33, 15.31 3.69, 22.32 1.47 C29.33 -0.75, 42.75 1.66, 47.49 2.19 C52.23 2.73, 50.98 4.13, 50.73 4.7 M28.54 -0.74 C35.15 -2.16, 44.33 0.66, 50 4.18 C55.68 7.7, 59.79 13.92, 62.59 20.36 C65.39 26.8, 67.49 35.57, 66.8 42.81 C66.1 50.06, 62.81 58.79, 58.42 63.82 C54.03 68.85, 46.91 71.85, 40.47 73.01 C34.04 74.17, 25.92 73.83, 19.79 70.78 C13.66 67.72, 6.85 61.08, 3.71 54.7 C0.56 48.32, -0.07 39.84, 0.92 32.49 C1.91 25.13, 5.3 15.8, 9.64 10.57 C13.98 5.34, 23.76 2.59, 26.95 1.12 C30.13 -0.35, 28.33 1.37, 28.74 1.73" stroke="#1e1e1e" stroke-width="2" fill="none"></path></g><g stroke-linecap="round" transform="translate(1077.8004622079784 96) rotate(0 42 27)"><path d="M13.5 0 C30.89 0.58, 45.42 -1.72, 70.5 0 M13.5 0 C27.56 0.32, 41.94 -0.04, 70.5 0 M70.5 0 C77.68 0.55, 84.47 3.31, 84 13.5 M70.5 0 C80.85 -1.05, 85.22 3.23, 84 13.5 M84 13.5 C85 18.93, 85.81 25.98, 84 40.5 M84 13.5 C82.87 21.58, 84.36 30.64, 84 40.5 M84 40.5 C85.88 50.3, 77.8 55.41, 70.5 54 M84 40.5 C82.59 51.09, 79.08 56.13, 70.5 54 M70.5 54 C52.99 53.57, 34.52 54.99, 13.5 54 M70.5 54 C51.84 53.95, 34.83 53.87, 13.5 54 M13.5 54 C5.94 52.62, -1.32 51.03, 0 40.5 M13.5 54 C6.25 53.55, -0.47 48.26, 0 40.5 M0 40.5 C1.04 30.32, 0.64 23.37, 0 13.5 M0 40.5 C-0.32 30.83, -0.11 22.07, 0 13.5 M0 13.5 C1.69 5.78, 5.13 -0.32, 13.5 0 M0 13.5 C-0.86 4.43, 4.67 0.45, 13.5 0" stroke="#1e1e1e" stroke-width="2" fill="none"></path></g><g stroke-linecap="round" transform="translate(590.0687689779661 476.41202120133903) rotate(0 248 91.5)"><path d="M32 0 C132.21 -2.56, 231.86 -2.8, 464 0 M32 0 C175.08 -0.91, 318.22 -0.84, 464 0 M464 0 C486.39 -1.1, 494.9 10.03, 496 32 M464 0 C483.82 1.25, 494.63 12.84, 496 32 M496 32 C495.67 61.34, 494.5 95.56, 496 151 M496 32 C496.27 57.52, 496.5 82.32, 496 151 M496 151 C495.63 174.18, 485.64 182.52, 464 183 M496 151 C496.59 172.88, 484.67 183, 464 183 M464 183 C315.46 182.94, 168.63 184.09, 32 183 M464 183 C323.39 181.86, 183.85 181.37, 32 183 M32 183 C10.26 181.92, 0.68 171.39, 0 151 M32 183 C12.82 184.05, -1.34 172.92, 0 151 M0 151 C1.11 109.4, -1.38 68.8, 0 32 M0 151 C-0.69 114.83, -1.38 78.96, 0 32 M0 32 C0.14 11.06, 11.78 0.81, 32 0 M0 32 C0.42 10.91, 10.32 0.79, 32 0" stroke="#1e1e1e" stroke-width="2" fill="none"></path></g><g transform="translate(795.3687682150266 481.41202120133903) rotate(0 42.70000076293945 25)"><text x="42.70000076293945" y="17.52" font-family="Virgil, Segoe UI Emoji" font-size="20px" fill="#1e1e1e" text-anchor="middle" style="white-space: pre;" direction="ltr" dominant-baseline="alphabetic">Eval App</text><text x="42.70000076293945" y="42.519999999999996" font-family="Virgil, Segoe UI Emoji" font-size="20px" fill="#1e1e1e" text-anchor="middle" style="white-space: pre;" direction="ltr" dominant-baseline="alphabetic">(nodejs)</text></g><g stroke-linecap="round" transform="translate(10 742.8336122358716) rotate(0 118 56)"><path d="M28 0 C72.51 -0.38, 116.32 1.9, 208 0 M28 0 C71.81 0.27, 114.01 0.5, 208 0 M208 0 C225.35 1.09, 234.81 11.23, 236 28 M208 0 C225.81 0.79, 234.58 8.48, 236 28 M236 28 C233.64 41.29, 236.26 49.13, 236 84 M236 28 C235.47 49.66, 235.81 69.24, 236 84 M236 84 C236.52 103.15, 226.09 112, 208 112 M236 84 C236.97 103.08, 227.18 110.47, 208 112 M208 112 C164.24 114.47, 118.11 111.71, 28 112 M208 112 C140.03 111.11, 72.79 111.18, 28 112 M28 112 C11.21 112.91, -1.17 103.18, 0 84 M28 112 C10.36 112.96, 0.37 104.51, 0 84 M0 84 C0.3 70.46, 1.53 54.17, 0 28 M0 84 C0.28 68.3, 0.77 52.61, 0 28 M0 28 C0.37 9.54, 9.03 0.69, 28 0 M0 28 C1.92 10.74, 10.26 1.69, 28 0" stroke="#1e1e1e" stroke-width="2" fill="none"></path></g><g transform="translate(54.44166564941406 773.8336122358716) rotate(0 73.55833435058594 25)"><text x="73.55833435058594" y="17.52" font-family="Virgil, Segoe UI Emoji" font-size="20px" fill="#1e1e1e" text-anchor="middle" style="white-space: pre;" direction="ltr" dominant-baseline="alphabetic">SQL Database</text><text x="73.55833435058594" y="42.519999999999996" font-family="Virgil, Segoe UI Emoji" font-size="20px" fill="#1e1e1e" text-anchor="middle" style="white-space: pre;" direction="ltr" dominant-baseline="alphabetic">(postgres)</text></g><g stroke-linecap="round"><g transform="translate(1114.7233392270864 157.46031746031758) rotate(0 3.48265922678911 41.64982173509464)"><path d="M0.28 -0.71 C1.74 13.02, 6.45 68.86, 7.67 82.75 M-1.03 1.52 C0.43 15.39, 5.73 70.32, 7.09 84" stroke="#1e1e1e" stroke-width="2" fill="none"></path></g><g transform="translate(1114.7233392270864 157.46031746031758) rotate(0 3.48265922678911 41.64982173509464)"><path d="M-3.71 61.46 C-2.58 67.32, -0.04 71.93, 7.09 84 M-3.71 61.46 C-1.85 67.55, 0.86 73.47, 7.09 84" stroke="#1e1e1e" stroke-width="2" fill="none"></path></g><g transform="translate(1114.7233392270864 157.46031746031758) rotate(0 3.48265922678911 41.64982173509464)"><path d="M13.31 59.79 C10.88 66.04, 9.86 71, 7.09 84 M13.31 59.79 C11 66.24, 9.54 72.57, 7.09 84" stroke="#1e1e1e" stroke-width="2" fill="none"></path></g></g><mask></mask><g stroke-linecap="round"><g transform="translate(585.755276914474 652.2226688543408) rotate(0 -169.03438448898305 51.10876791829631)"><path d="M0.71 -0.55 C-8.99 15.24, -1.32 76.92, -57.9 93.98 C-114.47 111.05, -291.9 100.36, -338.73 101.84 M-0.38 1.78 C-10.21 17.77, -1.93 78.31, -58.51 95.17 C-115.09 112.03, -293.09 102.04, -339.84 102.96" stroke="#1e1e1e" stroke-width="2" fill="none"></path></g><g transform="translate(585.755276914474 652.2226688543408) rotate(0 -169.03438448898305 51.10876791829631)"><path d="M-316.22 94.77 C-324.82 98.62, -332.65 99.11, -339.84 102.96 M-316.22 94.77 C-323.21 98.04, -329.32 99.64, -339.84 102.96" stroke="#1e1e1e" stroke-width="2" fill="none"></path></g><g transform="translate(585.755276914474 652.2226688543408) rotate(0 -169.03438448898305 51.10876791829631)"><path d="M-316.48 111.87 C-324.9 110.19, -332.64 105.14, -339.84 102.96 M-316.48 111.87 C-323.29 110.55, -329.34 107.56, -339.84 102.96" stroke="#1e1e1e" stroke-width="2" fill="none"></path></g></g><mask></mask><g stroke-linecap="round" transform="translate(705.4973404065372 546.078687868006) rotate(0 137.57142857142867 40)"><path d="M20 0 C70.53 -2.26, 117.52 -3.02, 255.14 0 M255.14 0 C268.69 -1.22, 276.43 8.51, 275.14 20 M275.14 20 C273.13 36.49, 276.08 49.19, 275.14 60 M275.14 60 C275.07 73.36, 268.05 79.03, 255.14 80 M255.14 80 C185.93 79.52, 120.1 78.45, 20 80 M20 80 C5.09 80.72, -0.68 73.76, 0 60 M0 60 C-1.83 49.88, -0.72 40.37, 0 20 M0 20 C-1.94 7.03, 4.88 -0.48, 20 0" stroke="#1e1e1e" stroke-width="2.5" fill="none" stroke-dasharray="8 10"></path></g><g transform="translate(756.093770503845 573.578687868006) rotate(0 86.9749984741211 12.5)"><text x="86.9749984741211" y="17.52" font-family="Virgil, Segoe UI Emoji" font-size="20px" fill="#1e1e1e" text-anchor="middle" style="white-space: pre;" direction="ltr" dominant-baseline="alphabetic">sandbox-container</text></g><g stroke-linecap="round" transform="translate(547.4835165695586 435.75534022150214) rotate(0 298.75 135.0000000000001)"><path d="M32 0 C192.65 0.09, 352.64 -1.4, 565.5 0 M32 0 C191.65 1.67, 351.14 1.63, 565.5 0 M565.5 0 C585.06 -1.23, 597.18 8.68, 597.5 32 M565.5 0 C585.92 0.42, 598.97 10.93, 597.5 32 M597.5 32 C596.74 104.32, 597.35 178.44, 597.5 238 M597.5 32 C597.73 112.22, 597.79 192.01, 597.5 238 M597.5 238 C597.34 257.45, 587.12 271.28, 565.5 270 M597.5 238 C595.97 261.08, 586.03 270.7, 565.5 270 M565.5 270 C448.71 271.33, 333.2 271.11, 32 270 M565.5 270 C406.74 269.92, 247.13 270.35, 32 270 M32 270 C9.93 271.75, -0.21 261.31, 0 238 M32 270 C11.58 271.11, 0.17 260.7, 0 238 M0 238 C-2.76 190.11, -3.31 143.7, 0 32 M0 238 C1.59 171.28, 1.95 106.07, 0 32 M0 32 C-0.88 9.64, 11.94 0.42, 32 0 M0 32 C2 8.9, 10.18 -0.49, 32 0" stroke="#1e1e1e" stroke-width="2" fill="none"></path></g><g transform="translate(807.116851683084 440.75534022150214) rotate(0 39.11666488647461 12.5)"><text x="39.11666488647461" y="17.52" font-family="Virgil, Segoe UI Emoji" font-size="20px" fill="#1e1e1e" text-anchor="middle" style="white-space: pre;" direction="ltr" dominant-baseline="alphabetic">k8s pod</text></g><g stroke-linecap="round" transform="translate(894.7825716917764 249.37804379571594) rotate(0 224.275793563281 28.494055739597172)"><path d="M14.25 0 C162.28 0.19, 309.47 -0.73, 434.3 0 M14.25 0 C120.58 1.22, 225.67 1.43, 434.3 0 M434.3 0 C444.51 1.55, 449.25 6.7, 448.55 14.25 M434.3 0 C444.28 -1.88, 449.78 5.31, 448.55 14.25 M448.55 14.25 C450.17 19.69, 449.12 29.61, 448.55 42.74 M448.55 14.25 C448.28 20.22, 448.69 28.55, 448.55 42.74 M448.55 42.74 C447.58 53.07, 444.69 56.16, 434.3 56.99 M448.55 42.74 C449.12 50.72, 445.77 55.4, 434.3 56.99 M434.3 56.99 C336.51 56.48, 237.72 56.33, 14.25 56.99 M434.3 56.99 C299.72 58.56, 165.55 58.23, 14.25 56.99 M14.25 56.99 C6.43 55.63, -1.06 53.63, 0 42.74 M14.25 56.99 C4.3 57.26, 2.19 51.46, 0 42.74 M0 42.74 C1.45 34.89, -1.64 26.71, 0 14.25 M0 42.74 C-0.05 33.27, 0.73 23.08, 0 14.25 M0 14.25 C-1.99 2.9, 5.77 -0.54, 14.25 0 M0 14.25 C-0.81 4.75, 3.68 -2.18, 14.25 0" stroke="#1e1e1e" stroke-width="2" fill="none"></path></g><g transform="translate(1018.141701131522 255.3720995353131) rotate(0 100.91666412353516 22.5)"><text x="100.91666412353516" y="31.536" font-family="Virgil, Segoe UI Emoji" font-size="36px" fill="#1e1e1e" text-anchor="middle" style="white-space: pre;" direction="ltr" dominant-baseline="alphabetic">k8s service</text></g><g stroke-linecap="round"><g transform="translate(1085.0983147452635 308.2044814516586) rotate(0 -54.82900449360773 61.2447297398769)"><path d="M0.99 -0.8 C-17.47 19.65, -92.05 101.8, -110.47 122.34 M0.04 1.4 C-18.06 22.06, -89.81 103.41, -108.19 123.8" stroke="#1e1e1e" stroke-width="2" fill="none"></path></g><g transform="translate(1085.0983147452635 308.2044814516586) rotate(0 -54.82900449360773 61.2447297398769)"><path d="M-98.96 100.57 C-103.34 106.82, -105.25 115.94, -108.19 123.8 M-98.96 100.57 C-101.6 107.78, -104.4 114.96, -108.19 123.8" stroke="#1e1e1e" stroke-width="2" fill="none"></path></g><g transform="translate(1085.0983147452635 308.2044814516586) rotate(0 -54.82900449360773 61.2447297398769)"><path d="M-86.18 111.94 C-94.68 114.61, -100.72 120.04, -108.19 123.8 M-86.18 111.94 C-92.57 115.67, -99.18 119.46, -108.19 123.8" stroke="#1e1e1e" stroke-width="2" fill="none"></path></g></g><mask></mask><g stroke-linecap="round" transform="translate(1204.7695923598876 474.2250851673647) rotate(0 248 91.5)"><path d="M32 0 C140.98 0.11, 250.47 -0.66, 464 0 M32 0 C190.18 1.59, 348.07 1.28, 464 0 M464 0 C485.28 1.34, 495.93 12.38, 496 32 M464 0 C487.06 -1.05, 496.61 12.19, 496 32 M496 32 C494.25 65.25, 498.04 98.66, 496 151 M496 32 C496.57 59.66, 496.71 89.4, 496 151 M496 151 C494.76 170.93, 484.75 183.13, 464 183 M496 151 C494.17 172.38, 484.6 183.73, 464 183 M464 183 C343.16 184.44, 223.69 183.43, 32 183 M464 183 C327.51 183.93, 191.31 183.65, 32 183 M32 183 C10.44 181.41, -1.6 170.48, 0 151 M32 183 C10.78 184.2, -0.03 171.35, 0 151 M0 151 C1.69 117.77, 0.3 82.7, 0 32 M0 151 C-1.49 109.24, -1.68 68.48, 0 32 M0 32 C-1.89 12.33, 11.57 -1.8, 32 0 M0 32 C-2.2 11.25, 12.88 -0.35, 32 0" stroke="#1e1e1e" stroke-width="2" fill="none"></path></g><g transform="translate(1410.0695915969482 479.2250851673647) rotate(0 42.70000076293945 25)"><text x="42.70000076293945" y="17.52" font-family="Virgil, Segoe UI Emoji" font-size="20px" fill="#1e1e1e" text-anchor="middle" style="white-space: pre;" direction="ltr" dominant-baseline="alphabetic">Eval App</text><text x="42.70000076293945" y="42.519999999999996" font-family="Virgil, Segoe UI Emoji" font-size="20px" fill="#1e1e1e" text-anchor="middle" style="white-space: pre;" direction="ltr" dominant-baseline="alphabetic">(nodejs)</text></g><g stroke-linecap="round" transform="translate(1320.1981637884583 543.8917518340317) rotate(0 137.57142857142867 40)"><path d="M20 0 C94.59 1.9, 165.67 2.17, 255.14 0 M255.14 0 C268.04 1.09, 273.49 6.61, 275.14 20 M275.14 20 C276.63 33.77, 275.66 50.68, 275.14 60 M275.14 60 C274.59 73.7, 268.96 78.03, 255.14 80 M255.14 80 C173.72 81.93, 93.7 82.63, 20 80 M20 80 C5.25 81.24, 1.32 72.09, 0 60 M0 60 C-1.48 50.85, -0.52 42.26, 0 20 M0 20 C-0.43 4.9, 7.83 -1.04, 20 0" stroke="#1e1e1e" stroke-width="2.5" fill="none" stroke-dasharray="8 10"></path></g><g transform="translate(1370.7945938857656 571.3917518340317) rotate(0 86.9749984741211 12.5)"><text x="86.9749984741211" y="17.52" font-family="Virgil, Segoe UI Emoji" font-size="20px" fill="#1e1e1e" text-anchor="middle" style="white-space: pre;" direction="ltr" dominant-baseline="alphabetic">sandbox-container</text></g><g stroke-linecap="round" transform="translate(1162.18433995148 433.5684041875278) rotate(0 298.75 135.0000000000001)"><path d="M32 0 C213.06 -0.75, 393.81 -1.21, 565.5 0 M32 0 C228.07 -2.01, 423.63 -1.57, 565.5 0 M565.5 0 C586.28 0.37, 597.99 8.7, 597.5 32 M565.5 0 C587.8 2.1, 599.6 9.25, 597.5 32 M597.5 32 C595.5 96.38, 597.94 157.45, 597.5 238 M597.5 32 C596.26 79.35, 596.68 126.94, 597.5 238 M597.5 238 C597.07 257.57, 588 268.96, 565.5 270 M597.5 238 C597.84 260.01, 584.91 270.36, 565.5 270 M565.5 270 C431.72 270, 297.1 269.65, 32 270 M565.5 270 C447.85 268.23, 330.15 267.85, 32 270 M32 270 C10.51 268.47, 1.44 260.11, 0 238 M32 270 C12.46 269.29, 1.49 260.5, 0 238 M0 238 C-1.49 162.32, 0.21 88.45, 0 32 M0 238 C-1.68 159.27, 0.03 79.96, 0 32 M0 32 C-1.55 9.45, 9.33 0.47, 32 0 M0 32 C-0.33 11.76, 10.77 2.03, 32 0" stroke="#1e1e1e" stroke-width="2" fill="none"></path></g><g transform="translate(1421.8176750650055 438.5684041875278) rotate(0 39.11666488647461 12.5)"><text x="39.11666488647461" y="17.52" font-family="Virgil, Segoe UI Emoji" font-size="20px" fill="#1e1e1e" text-anchor="middle" style="white-space: pre;" direction="ltr" dominant-baseline="alphabetic">k8s pod</text></g><g stroke-linecap="round"><g transform="translate(1159.4272618572613 670.9914054842808) rotate(0 -454.22628674427756 42.236929739489085)"><path d="M-0.5 -0.9 C-18.37 12.59, 45.12 66.11, -106.39 80.52 C-257.91 94.92, -776.08 84.94, -909.59 85.54 M1.43 1.24 C-16.57 14.99, 44.64 68.37, -106.81 82.12 C-258.26 95.88, -773.99 83.28, -907.3 83.75" stroke="#1e1e1e" stroke-width="2" fill="none"></path></g><g transform="translate(1159.4272618572613 670.9914054842808) rotate(0 -454.22628674427756 42.236929739489085)"><path d="M-883.72 75.44 C-893.86 80.05, -900.74 79.51, -907.3 83.75 M-883.72 75.44 C-892.06 79.13, -901.85 81.08, -907.3 83.75" stroke="#1e1e1e" stroke-width="2" fill="none"></path></g><g transform="translate(1159.4272618572613 670.9914054842808) rotate(0 -454.22628674427756 42.236929739489085)"><path d="M-883.89 92.54 C-893.91 90.91, -900.73 84.12, -907.3 83.75 M-883.89 92.54 C-892.31 89.59, -902.03 84.89, -907.3 83.75" stroke="#1e1e1e" stroke-width="2" fill="none"></path></g></g><mask></mask><g stroke-linecap="round"><g transform="translate(1344.8495657232988 820.2176391930295) rotate(0 201.14250918972675 1.25)"><path d="M0.08 -0.01 C66.92 0.32, 334.55 1.46, 401.67 1.85 M-1.33 -1.06 C65.85 -0.57, 336.78 2.28, 404.06 3.04" stroke="#1e1e1e" stroke-width="2" fill="none"></path></g><g transform="translate(1344.8495657232988 820.2176391930295) rotate(0 201.14250918972675 1.25)"><path d="M380.48 11.34 C388.83 7.36, 396.12 6.38, 404.06 3.04 M380.48 11.34 C386.3 9.57, 394.02 6.82, 404.06 3.04" stroke="#1e1e1e" stroke-width="2" fill="none"></path></g><g transform="translate(1344.8495657232988 820.2176391930295) rotate(0 201.14250918972675 1.25)"><path d="M380.67 -5.76 C388.93 -3.68, 396.16 1.4, 404.06 3.04 M380.67 -5.76 C386.32 -2.71, 393.99 -0.64, 404.06 3.04" stroke="#1e1e1e" stroke-width="2" fill="none"></path></g></g><mask></mask><g stroke-linecap="round"><g transform="translate(948.5561479709709 806.5115011526739) rotate(0 -196.87339971234474 -1.1261943423363618)"><path d="M-0.61 -0.65 C-66.16 -1.06, -327.53 -2.28, -393.18 -2.47 M1.27 1.62 C-64.39 1.39, -328.29 -0.12, -393.83 -1.05" stroke="#1e1e1e" stroke-width="2" fill="none"></path></g><g transform="translate(948.5561479709709 806.5115011526739) rotate(0 -196.87339971234474 -1.1261943423363618)"><path d="M-370.26 -9.38 C-378.59 -6, -385.1 -5.66, -393.83 -1.05 M-370.26 -9.38 C-378.04 -6.19, -385.68 -4.49, -393.83 -1.05" stroke="#1e1e1e" stroke-width="2" fill="none"></path></g><g transform="translate(948.5561479709709 806.5115011526739) rotate(0 -196.87339971234474 -1.1261943423363618)"><path d="M-370.42 7.72 C-378.7 5.85, -385.16 0.94, -393.83 -1.05 M-370.42 7.72 C-377.99 5.18, -385.58 1.15, -393.83 -1.05" stroke="#1e1e1e" stroke-width="2" fill="none"></path></g></g><mask></mask><g transform="translate(1016.5728467941476 791.9401391460387) rotate(0 141.51666259765625 22.5)"><text x="0" y="31.536" font-family="Virgil, Segoe UI Emoji" font-size="36px" fill="#1e1e1e" text-anchor="start" style="white-space: pre;" direction="ltr" dominant-baseline="alphabetic">Horizontal scale</text></g><g stroke-linecap="round"><g transform="translate(1164.6495834227444 307.65268509467177) rotate(0 83.33838133289146 59.68830014382763)"><path d="M0.01 0.02 C27.82 19.89, 138.42 98.78, 166.14 118.85 M-1.45 -1.02 C26.22 19.05, 137.11 100.17, 164.91 120.11" stroke="#1e1e1e" stroke-width="2" fill="none"></path></g><g transform="translate(1164.6495834227444 307.65268509467177) rotate(0 83.33838133289146 59.68830014382763)"><path d="M140.87 113.23 C146.67 113.99, 151.56 115.93, 164.91 120.11 M140.87 113.23 C149.75 116.31, 159.05 118.53, 164.91 120.11" stroke="#1e1e1e" stroke-width="2" fill="none"></path></g><g transform="translate(1164.6495834227444 307.65268509467177) rotate(0 83.33838133289146 59.68830014382763)"><path d="M150.91 99.39 C154.24 103.49, 156.71 108.77, 164.91 120.11 M150.91 99.39 C155.97 107.81, 161.41 115.36, 164.91 120.11" stroke="#1e1e1e" stroke-width="2" fill="none"></path></g></g><mask></mask><g stroke-linecap="round" transform="translate(1837.4470981917248 413.3763078303479) rotate(0 119.16666666666652 70)"><path d="M32 0 C95.04 1.38, 158.24 -1.86, 206.33 0 M206.33 0 C228.41 -1.97, 237.41 11.91, 238.33 32 M238.33 32 C238.34 51.85, 238.42 70.88, 238.33 108 M238.33 108 C238.87 127.96, 225.76 138.95, 206.33 140 M206.33 140 C156.28 142.38, 107.08 141.98, 32 140 M32 140 C9.47 139.55, 1.29 130.96, 0 108 M0 108 C-0.4 77.13, 1.74 49.61, 0 32 M0 32 C0.82 11.02, 9.73 -1.29, 32 0" stroke="#9c36b5" stroke-width="2.5" fill="none" stroke-dasharray="1.5 8"></path></g><g transform="translate(1848.0220976830988 445.8763078303479) rotate(0 108.59166717529297 37.5)"><text x="108.59166717529297" y="17.52" font-family="Virgil, Segoe UI Emoji" font-size="20px" fill="#9c36b5" text-anchor="middle" style="white-space: pre;" direction="ltr" dominant-baseline="alphabetic">Container in container</text><text x="108.59166717529297" y="42.519999999999996" font-family="Virgil, Segoe UI Emoji" font-size="20px" fill="#9c36b5" text-anchor="middle" style="white-space: pre;" direction="ltr" dominant-baseline="alphabetic">DIND DockerInDocker</text><text x="108.59166717529297" y="67.52" font-family="Virgil, Segoe UI Emoji" font-size="20px" fill="#9c36b5" text-anchor="middle" style="white-space: pre;" direction="ltr" dominant-baseline="alphabetic"></text></g><g stroke-linecap="round"><g transform="translate(1829.9470981917248 497.5023673665499) rotate(0 -110.51307569626806 39.475239125206116)"><path d="M-1.15 0.44 C-38.32 13.45, -185.69 65.38, -222.21 78.4" stroke="#9c36b5" stroke-width="2.5" fill="none" stroke-dasharray="1.5 8"></path></g><g transform="translate(1829.9470981917248 497.5023673665499) rotate(0 -110.51307569626806 39.475239125206116)"><path d="M-202.92 62.5 C-209.2 66.16, -217.93 75.2, -222.21 78.4" stroke="#9c36b5" stroke-width="2.5" fill="none" stroke-dasharray="1.5 6"></path></g><g transform="translate(1829.9470981917248 497.5023673665499) rotate(0 -110.51307569626806 39.475239125206116)"><path d="M-197.21 78.62 C-205.63 76.33, -216.45 79.45, -222.21 78.4" stroke="#9c36b5" stroke-width="2.5" fill="none" stroke-dasharray="1.5 6"></path></g></g><mask></mask></svg>