<svg version="1.1" xmlns="http://www.w3.org/2000/svg" viewBox="0 0 2892.8919830962222 1303.871517497783" width="2892.8919830962222" height="1303.871517497783">
  <!-- svg-source:excalidraw -->
  
  <defs>
    <style class="style-fonts">
      @font-face {
        font-family: "Virgil";
        src: url("https://excalidraw.com/Virgil.woff2");
      }
      @font-face {
        font-family: "Cascadia";
        src: url("https://excalidraw.com/Cascadia.woff2");
      }
      @font-face {
        font-family: "Assistant";
        src: url("https://excalidraw.com/Assistant-Regular.woff2");
      }
    </style>
    
  </defs>
  <g stroke-linecap="round" transform="translate(323.57589471093047 28.92861009003036) rotate(0 641.49314890865 236.65963592775472)"><path d="M32 0 C310.43 1.52, 589.08 1.22, 1250.99 0 M32 0 C436.99 -2.29, 843 -2.86, 1250.99 0 M1250.99 0 C1270.52 -1.64, 1282.38 11.8, 1282.99 32 M1250.99 0 C1270.49 -0.43, 1281.85 9.72, 1282.99 32 M1282.99 32 C1285.61 130.37, 1284.54 227.92, 1282.99 441.32 M1282.99 32 C1283.43 147.49, 1283.7 261.93, 1282.99 441.32 M1282.99 441.32 C1282.05 461.36, 1270.53 474.84, 1250.99 473.32 M1282.99 441.32 C1284.77 461.4, 1272.75 472.1, 1250.99 473.32 M1250.99 473.32 C954.46 477.03, 658 476.82, 32 473.32 M1250.99 473.32 C856.72 468.47, 461.42 468.31, 32 473.32 M32 473.32 C11.41 473.89, -0.67 461.27, 0 441.32 M32 473.32 C12.68 473.64, -1.72 462.17, 0 441.32 M0 441.32 C-2.22 357.51, -0.87 274.72, 0 32 M0 441.32 C-0.57 311.89, -1.2 182.09, 0 32 M0 32 C1.4 10.53, 10.28 0.17, 32 0 M0 32 C1.26 12.6, 12.13 2.02, 32 0" stroke="#1e1e1e" stroke-width="2" fill="none"></path></g><g transform="translate(943.7940440010501 33.92861009003036) rotate(0 21.274999618530273 12.5)"><text x="21.274999618530273" y="17.52" font-family="Virgil, Segoe UI Emoji" font-size="20px" fill="#1e1e1e" text-anchor="middle" style="white-space: pre;" direction="ltr" dominant-baseline="alphabetic">Eval</text></g><g stroke-linecap="round" transform="translate(400.86811946545606 240.74341502462335) rotate(0 248 91.5)"><path d="M32 0 C123.36 0.27, 213.68 0.93, 464 0 M32 0 C204.61 1.28, 376.59 1.47, 464 0 M464 0 C484.61 -0.52, 494.68 12.35, 496 32 M464 0 C484.43 0.27, 494.78 11.41, 496 32 M496 32 C495.42 80.02, 495.01 125.59, 496 151 M496 32 C496.05 68.31, 496.35 105, 496 151 M496 151 C494.06 173.69, 485.58 181.06, 464 183 M496 151 C497.84 170.11, 487.55 182.36, 464 183 M464 183 C357.09 181.52, 248.93 181.72, 32 183 M464 183 C303.79 181.95, 143.2 181.47, 32 183 M32 183 C10.14 182.69, 0.8 174.25, 0 151 M32 183 C11.99 181.47, -0.7 172.6, 0 151 M0 151 C-0.18 126.8, -0.92 98.63, 0 32 M0 151 C-0.98 110.68, 0.22 68.46, 0 32 M0 32 C0.75 9.15, 10.58 0.94, 32 0 M0 32 C0.27 10.63, 9.48 -0.3, 32 0" stroke="#1e1e1e" stroke-width="2" fill="none"></path></g><g transform="translate(606.1681187025166 245.74341502462335) rotate(0 42.70000076293945 25)"><text x="42.70000076293945" y="17.52" font-family="Virgil, Segoe UI Emoji" font-size="20px" fill="#1e1e1e" text-anchor="middle" style="white-space: pre;" direction="ltr" dominant-baseline="alphabetic">Eval App</text><text x="42.70000076293945" y="42.519999999999996" font-family="Virgil, Segoe UI Emoji" font-size="20px" fill="#1e1e1e" text-anchor="middle" style="white-space: pre;" direction="ltr" dominant-baseline="alphabetic">(nodejs)</text></g><g stroke-linecap="round" transform="translate(10 527.436504221211) rotate(0 118 56)"><path d="M28 0 C77.57 0.82, 122.25 0.3, 208 0 M28 0 C90.25 -1.8, 152.56 -0.69, 208 0 M208 0 C225.88 0.23, 234.94 9.98, 236 28 M208 0 C228.89 1.51, 233.77 7.77, 236 28 M236 28 C235.61 46.59, 237.39 67.06, 236 84 M236 28 C235.41 45.27, 236.5 60.22, 236 84 M236 84 C237.6 100.74, 228.59 111.44, 208 112 M236 84 C234.83 102.84, 224.67 113.44, 208 112 M208 112 C147.61 112.16, 83.11 114.04, 28 112 M208 112 C141.83 111.36, 76.59 112.47, 28 112 M28 112 C10.48 110.67, -0.61 102.9, 0 84 M28 112 C7.37 114.13, 0.35 103.73, 0 84 M0 84 C0.85 64.27, -2 41.87, 0 28 M0 84 C-0.04 62.2, -0.46 42.39, 0 28 M0 28 C0.24 9.3, 8.3 -0.26, 28 0 M0 28 C1.35 9.9, 11.13 1.89, 28 0" stroke="#1e1e1e" stroke-width="2" fill="none"></path></g><g transform="translate(54.44166564941406 558.436504221211) rotate(0 73.55833435058594 25)"><text x="73.55833435058594" y="17.52" font-family="Virgil, Segoe UI Emoji" font-size="20px" fill="#1e1e1e" text-anchor="middle" style="white-space: pre;" direction="ltr" dominant-baseline="alphabetic">SQL Database</text><text x="73.55833435058594" y="42.519999999999996" font-family="Virgil, Segoe UI Emoji" font-size="20px" fill="#1e1e1e" text-anchor="middle" style="white-space: pre;" direction="ltr" dominant-baseline="alphabetic">(postgres)</text></g><g stroke-linecap="round"><g transform="translate(528.1411318963884 509.1428997363339) rotate(0 -140.22731197994017 36.089837050577216)"><path d="M-0.51 1.03 C-14.33 11.36, -35.65 50.53, -82.44 62.56 C-129.23 74.59, -248.17 71.57, -281.25 73.19 M1.42 0.52 C-12.64 10.98, -36.92 52.12, -83.61 63.93 C-130.31 75.74, -245.88 69.79, -278.77 71.38" stroke="#1e1e1e" stroke-width="2" fill="none"></path></g><g transform="translate(528.1411318963884 509.1428997363339) rotate(0 -140.22731197994017 36.089837050577216)"><path d="M-255.29 62.79 C-261.53 64.89, -271.74 67.21, -278.77 71.38 M-255.29 62.79 C-264.88 66.45, -272.41 70.08, -278.77 71.38" stroke="#1e1e1e" stroke-width="2" fill="none"></path></g><g transform="translate(528.1411318963884 509.1428997363339) rotate(0 -140.22731197994017 36.089837050577216)"><path d="M-255.26 79.89 C-261.59 76.17, -271.81 72.68, -278.77 71.38 M-255.26 79.89 C-264.8 76.97, -272.34 74.03, -278.77 71.38" stroke="#1e1e1e" stroke-width="2" fill="none"></path></g></g><mask></mask><g stroke-linecap="round" transform="translate(516.2966908940276 310.4100816912903) rotate(0 137.57142857142856 40)"><path d="M20 0 C80.06 -0.4, 142.41 0.05, 255.14 0 M255.14 0 C268.71 -1.06, 275.79 8.6, 275.14 20 M275.14 20 C275.59 32.86, 273.98 49.37, 275.14 60 M275.14 60 C274.59 75.22, 269.24 79.93, 255.14 80 M255.14 80 C169.86 78.29, 80.66 79.43, 20 80 M20 80 C4.74 81.93, -0.56 72.31, 0 60 M0 60 C1.22 47.78, 1.59 36.84, 0 20 M0 20 C-0.96 5.42, 7.59 1.32, 20 0" stroke="#1e1e1e" stroke-width="2.5" fill="none" stroke-dasharray="8 10"></path></g><g transform="translate(566.8931209913352 337.9100816912903) rotate(0 86.9749984741211 12.5)"><text x="86.9749984741211" y="17.52" font-family="Virgil, Segoe UI Emoji" font-size="20px" fill="#1e1e1e" text-anchor="middle" style="white-space: pre;" direction="ltr" dominant-baseline="alphabetic">sandbox-container</text></g><g stroke-linecap="round" transform="translate(360.53525574172147 200.08673404478645) rotate(0 298.75 135)"><path d="M32 0 C156.86 0.42, 281.8 1.61, 565.5 0 M32 0 C227.3 1.1, 422.11 1.48, 565.5 0 M565.5 0 C586.28 1.88, 598.27 10.59, 597.5 32 M565.5 0 C588.39 0.67, 595.27 12.23, 597.5 32 M597.5 32 C594.01 98.08, 595.23 159.83, 597.5 238 M597.5 32 C596.3 95.36, 596.46 159.29, 597.5 238 M597.5 238 C596.54 258.08, 587.76 271.32, 565.5 270 M597.5 238 C597.92 258.71, 586.23 269.64, 565.5 270 M565.5 270 C383.6 270.98, 202.86 270.54, 32 270 M565.5 270 C356.4 271.02, 146.51 271.16, 32 270 M32 270 C11.55 268.06, -0.9 260.85, 0 238 M32 270 C12.38 269.13, 0.86 257.59, 0 238 M0 238 C-0.9 176.15, -1.09 117.19, 0 32 M0 238 C-1.31 170.68, -1.12 104.24, 0 32 M0 32 C1.34 11.6, 12.17 1.8, 32 0 M0 32 C1.45 10.64, 9.69 1.26, 32 0" stroke="#1e1e1e" stroke-width="2" fill="none"></path></g><g transform="translate(620.1685908552469 205.08673404478645) rotate(0 39.11666488647461 12.5)"><text x="39.11666488647461" y="17.52" font-family="Virgil, Segoe UI Emoji" font-size="20px" fill="#1e1e1e" text-anchor="middle" style="white-space: pre;" direction="ltr" dominant-baseline="alphabetic">k8s pod</text></g><g stroke-linecap="round" transform="translate(821.5546047679501 91.4016464370327) rotate(0 145.85636961792318 27.5)"><path d="M13.75 0 C80.09 -3.56, 143.26 -1.36, 277.96 0 M13.75 0 C69.4 0.63, 125.8 -0.14, 277.96 0 M277.96 0 C288.48 0.59, 289.77 5.94, 291.71 13.75 M277.96 0 C287.42 -2.23, 293.56 2.36, 291.71 13.75 M291.71 13.75 C291.78 22.92, 292.88 36.42, 291.71 41.25 M291.71 13.75 C291.4 21.48, 292.35 31.12, 291.71 41.25 M291.71 41.25 C292.08 49.88, 286.6 54.69, 277.96 55 M291.71 41.25 C292.63 52.62, 288.45 53.47, 277.96 55 M277.96 55 C208.16 53.45, 136.15 54.3, 13.75 55 M277.96 55 C196.61 55.18, 114.2 56.55, 13.75 55 M13.75 55 C6.08 54.25, 0.75 48.9, 0 41.25 M13.75 55 C4.49 56.08, 0.27 50.38, 0 41.25 M0 41.25 C0.53 35.98, 1.68 27.86, 0 13.75 M0 41.25 C0.57 34.8, 0.66 28.32, 0 13.75 M0 13.75 C1.26 4.56, 3.73 1.09, 13.75 0 M0 13.75 C0.04 4.96, 5.64 1.79, 13.75 0" stroke="#1e1e1e" stroke-width="2" fill="none"></path></g><g transform="translate(866.494310262338 96.4016464370327) rotate(0 100.91666412353516 22.5)"><text x="100.91666412353516" y="31.536" font-family="Virgil, Segoe UI Emoji" font-size="36px" fill="#1e1e1e" text-anchor="middle" style="white-space: pre;" direction="ltr" dominant-baseline="alphabetic">k8s service</text></g><g stroke-linecap="round"><g transform="translate(921.6078392312637 148.23997261378122) rotate(0 -32.28949474674175 23.39268107045791)"><path d="M0.5 -1.06 C-10.14 6.88, -54.14 38.69, -65.04 46.85 M-0.69 0.99 C-11.43 9.22, -55.37 40.89, -66.23 48.42" stroke="#1e1e1e" stroke-width="2" fill="none"></path></g><g transform="translate(921.6078392312637 148.23997261378122) rotate(0 -32.28949474674175 23.39268107045791)"><path d="M-52.03 27.85 C-56.82 31.31, -57.82 35.7, -66.23 48.42 M-52.03 27.85 C-56.87 36.25, -64.11 44.74, -66.23 48.42" stroke="#1e1e1e" stroke-width="2" fill="none"></path></g><g transform="translate(921.6078392312637 148.23997261378122) rotate(0 -32.28949474674175 23.39268107045791)"><path d="M-42.13 41.79 C-48.83 42.47, -51.84 44.03, -66.23 48.42 M-42.13 41.79 C-50.92 44.69, -62.07 47.69, -66.23 48.42" stroke="#1e1e1e" stroke-width="2" fill="none"></path></g></g><mask></mask><g stroke-linecap="round" transform="translate(1015.5689428473776 238.5564789906491) rotate(0 248 91.5)"><path d="M32 0 C179.76 0.57, 328.38 1.25, 464 0 M32 0 C159.52 -0.3, 288.1 -1.15, 464 0 M464 0 C486.94 -1.93, 497.93 10.11, 496 32 M464 0 C484.16 0.17, 494.01 12.1, 496 32 M496 32 C497.47 71.91, 494.79 114.66, 496 151 M496 32 C495.95 75.41, 496.62 120.1, 496 151 M496 151 C497.15 171.01, 484.73 183.23, 464 183 M496 151 C494.04 174.46, 485.68 184.06, 464 183 M464 183 C305.44 182.07, 144.95 181.16, 32 183 M464 183 C301.87 181.78, 139.32 182.41, 32 183 M32 183 C10.9 182.96, -1.03 172.08, 0 151 M32 183 C12.02 183.57, 1.8 174.23, 0 151 M0 151 C0.64 115, 1.51 77.82, 0 32 M0 151 C-1.18 105.11, -0.73 58.28, 0 32 M0 32 C0.92 12.22, 9.41 -1.44, 32 0 M0 32 C0.24 8.62, 12.47 1.92, 32 0" stroke="#1e1e1e" stroke-width="2" fill="none"></path></g><g transform="translate(1220.868942084438 243.5564789906491) rotate(0 42.70000076293945 25)"><text x="42.70000076293945" y="17.52" font-family="Virgil, Segoe UI Emoji" font-size="20px" fill="#1e1e1e" text-anchor="middle" style="white-space: pre;" direction="ltr" dominant-baseline="alphabetic">Eval App</text><text x="42.70000076293945" y="42.519999999999996" font-family="Virgil, Segoe UI Emoji" font-size="20px" fill="#1e1e1e" text-anchor="middle" style="white-space: pre;" direction="ltr" dominant-baseline="alphabetic">(nodejs)</text></g><g stroke-linecap="round" transform="translate(1130.997514275948 308.2231456573161) rotate(0 137.57142857142856 40)"><path d="M20 0 C83.96 0.38, 148.54 -2.39, 255.14 0 M255.14 0 C269.83 0.25, 273.21 8.27, 275.14 20 M275.14 20 C274.51 28.29, 273.8 37.53, 275.14 60 M275.14 60 C276.01 73.41, 269.72 81.43, 255.14 80 M255.14 80 C196.97 81.22, 136.12 80.47, 20 80 M20 80 C6.35 80.8, 1.92 74.48, 0 60 M0 60 C-1.58 52.5, 0.42 42.23, 0 20 M0 20 C1.36 6.85, 5.42 0.9, 20 0" stroke="#1e1e1e" stroke-width="2.5" fill="none" stroke-dasharray="8 10"></path></g><g transform="translate(1181.5939443732555 335.7231456573161) rotate(0 86.9749984741211 12.5)"><text x="86.9749984741211" y="17.52" font-family="Virgil, Segoe UI Emoji" font-size="20px" fill="#1e1e1e" text-anchor="middle" style="white-space: pre;" direction="ltr" dominant-baseline="alphabetic">sandbox-container</text></g><g stroke-linecap="round" transform="translate(972.98369043897 197.89979801081222) rotate(0 298.75 135.0000000000001)"><path d="M32 0 C228.63 2.17, 423.41 2.71, 565.5 0 M32 0 C140.35 0.63, 248.76 0.85, 565.5 0 M565.5 0 C587.7 0.08, 598.74 12.09, 597.5 32 M565.5 0 C585.73 -1.44, 598.56 12.19, 597.5 32 M597.5 32 C596.73 98.28, 598.71 164.16, 597.5 238 M597.5 32 C596.19 80.95, 597.08 128.66, 597.5 238 M597.5 238 C598.86 259.52, 585.59 270.9, 565.5 270 M597.5 238 C598.52 257.1, 585.79 271.74, 565.5 270 M565.5 270 C365 270.77, 166.09 270.89, 32 270 M565.5 270 C406.62 269.82, 247.59 270.06, 32 270 M32 270 C10.94 269.03, 0.71 259.4, 0 238 M32 270 C12.21 271.08, 1.73 261.41, 0 238 M0 238 C0.99 163.24, 0.31 89.23, 0 32 M0 238 C1.24 159.41, 1.85 83.16, 0 32 M0 32 C-1.52 10.19, 12.44 1.05, 32 0 M0 32 C-0.79 12.19, 10.37 -1.74, 32 0" stroke="#1e1e1e" stroke-width="2" fill="none"></path></g><g transform="translate(1232.6170255524953 202.89979801081222) rotate(0 39.11666488647461 12.5)"><text x="39.11666488647461" y="17.52" font-family="Virgil, Segoe UI Emoji" font-size="20px" fill="#1e1e1e" text-anchor="middle" style="white-space: pre;" direction="ltr" dominant-baseline="alphabetic">k8s pod</text></g><g stroke-linecap="round"><g transform="translate(1124.679267786768 615.768232529457) rotate(0 199.30418301297846 -0.5883261767482963)"><path d="M1.16 -0.34 C67.33 -0.32, 331.93 -1.07, 398 -1.09 M0.3 -1.56 C66.79 -1.23, 333.78 0.63, 400.39 0.5" stroke="#1e1e1e" stroke-width="2" fill="none"></path></g><g transform="translate(1124.679267786768 615.768232529457) rotate(0 199.30418301297846 -0.5883261767482963)"><path d="M376.87 8.97 C385.33 4.5, 394.98 0.57, 400.39 0.5 M376.87 8.97 C385.98 6.61, 393.4 2.19, 400.39 0.5" stroke="#1e1e1e" stroke-width="2" fill="none"></path></g><g transform="translate(1124.679267786768 615.768232529457) rotate(0 199.30418301297846 -0.5883261767482963)"><path d="M376.92 -8.13 C385.2 -6.1, 394.82 -3.53, 400.39 0.5 M376.92 -8.13 C386.09 -4.3, 393.49 -2.51, 400.39 0.5" stroke="#1e1e1e" stroke-width="2" fill="none"></path></g></g><mask></mask><g stroke-linecap="round"><g transform="translate(757.7990688624119 616.7687039030868) rotate(0 -196.8733997123448 -1.1261943423364755)"><path d="M-0.61 0.09 C-66.6 -0.11, -329.35 -1.12, -394.79 -1.5 M1.27 -0.91 C-64.46 -1.42, -326.79 -3.24, -392.62 -3.23" stroke="#1e1e1e" stroke-width="2" fill="none"></path></g><g transform="translate(757.7990688624119 616.7687039030868) rotate(0 -196.8733997123448 -1.1261943423364755)"><path d="M-369.09 -11.69 C-378.3 -10.19, -386.52 -4.24, -392.62 -3.23 M-369.09 -11.69 C-376.67 -9.58, -382.88 -5.72, -392.62 -3.23" stroke="#1e1e1e" stroke-width="2" fill="none"></path></g><g transform="translate(757.7990688624119 616.7687039030868) rotate(0 -196.8733997123448 -1.1261943423364755)"><path d="M-369.16 5.41 C-378.29 0.13, -386.49 -0.69, -392.62 -3.23 M-369.16 5.41 C-376.82 2.33, -383.01 0.99, -392.62 -3.23" stroke="#1e1e1e" stroke-width="2" fill="none"></path></g></g><mask></mask><g transform="translate(801.917527387861 594.8440371894592) rotate(0 141.51666259765625 22.5)"><text x="0" y="31.536" font-family="Virgil, Segoe UI Emoji" font-size="36px" fill="#1e1e1e" text-anchor="start" style="white-space: pre;" direction="ltr" dominant-baseline="alphabetic">Horizontal scale</text></g><g stroke-linecap="round"><g transform="translate(1020.9064450232262 147.68817625679458) rotate(0 38.39538162974566 21.836251474408414)"><path d="M0.52 0.05 C13.62 7.34, 64.92 37.38, 77.54 44.53 M-0.66 -0.98 C12.43 5.93, 64.34 35.39, 76.98 42.86" stroke="#1e1e1e" stroke-width="2" fill="none"></path></g><g transform="translate(1020.9064450232262 147.68817625679458) rotate(0 38.39538162974566 21.836251474408414)"><path d="M52.36 38.53 C57.72 40.59, 64.32 39.31, 76.98 42.86 M52.36 38.53 C58.41 39.12, 63.81 40.26, 76.98 42.86" stroke="#1e1e1e" stroke-width="2" fill="none"></path></g><g transform="translate(1020.9064450232262 147.68817625679458) rotate(0 38.39538162974566 21.836251474408414)"><path d="M60.9 23.71 C64.53 28.97, 69.31 30.85, 76.98 42.86 M60.9 23.71 C64.99 27.88, 68.36 32.54, 76.98 42.86" stroke="#1e1e1e" stroke-width="2" fill="none"></path></g></g><mask></mask><g stroke-linecap="round" transform="translate(85.09022681896704 10) rotate(0 34 37)"><path d="M21.53 1.87 C27.1 -1.07, 35.59 -1.37, 42.17 0.54 C48.74 2.45, 56.58 7.66, 60.97 13.34 C65.37 19.02, 68.14 27.12, 68.51 34.62 C68.89 42.12, 67.08 52.32, 63.21 58.35 C59.35 64.37, 51.86 68.45, 45.33 70.78 C38.8 73.11, 30.27 74.27, 24.03 72.33 C17.8 70.4, 11.95 64.9, 7.92 59.18 C3.89 53.47, 0.28 45.26, -0.16 38.05 C-0.6 30.84, 0.87 22.18, 5.27 15.91 C9.67 9.65, 22.3 2.83, 26.24 0.43 C30.18 -1.97, 29.06 0.82, 28.94 1.53 M30.48 1.38 C36.74 0.32, 46.03 1.37, 51.7 4.69 C57.37 8.02, 62.14 14.41, 64.5 21.32 C66.85 28.24, 66.98 39.09, 65.84 46.19 C64.7 53.3, 62.38 59.46, 57.66 63.93 C52.93 68.4, 44.46 72.17, 37.49 73.04 C30.53 73.9, 21.47 72.62, 15.86 69.13 C10.24 65.65, 6.14 58.68, 3.79 52.14 C1.44 45.61, 0.39 37.01, 1.76 29.92 C3.14 22.83, 7.29 14.82, 12.05 9.61 C16.81 4.41, 26.97 0.17, 30.31 -1.31 C33.66 -2.8, 32.21 -0.03, 32.13 0.7" stroke="#1e1e1e" stroke-width="2" fill="none"></path></g><g stroke-linecap="round" transform="translate(78.09022681896704 96) rotate(0 42 27)"><path d="M13.5 0 C34.86 -0.37, 54.1 -0.49, 70.5 0 M13.5 0 C24.33 0.36, 35.69 0.71, 70.5 0 M70.5 0 C81.23 -1.04, 82.2 2.86, 84 13.5 M70.5 0 C78.8 1.31, 82.17 4.07, 84 13.5 M84 13.5 C85.85 18.64, 84.65 27.62, 84 40.5 M84 13.5 C84.21 19.37, 83.75 27.31, 84 40.5 M84 40.5 C84.54 48.9, 78.57 52.71, 70.5 54 M84 40.5 C81.94 51.25, 81.28 52.75, 70.5 54 M70.5 54 C52.71 54.99, 34.76 54.94, 13.5 54 M70.5 54 C49.37 53.15, 29.72 54, 13.5 54 M13.5 54 C2.74 52.97, 0.74 50.07, 0 40.5 M13.5 54 C3.73 52.41, 2.01 49.82, 0 40.5 M0 40.5 C1.32 34.44, -1.39 26.7, 0 13.5 M0 40.5 C0.59 30.09, 0.79 21.45, 0 13.5 M0 13.5 C-1.1 2.74, 5.9 -0.14, 13.5 0 M0 13.5 C-0.45 4.69, 5.76 1.93, 13.5 0" stroke="#1e1e1e" stroke-width="2" fill="none"></path></g><g stroke-linecap="round"><g transform="translate(169.55054427928462 124.9056966416772) rotate(0 70.92133694332921 3.025697977998334)"><path d="M-1.08 -0.98 C22.33 0.24, 117.82 5.6, 141.48 6.73 M0.56 1.11 C23.68 2.05, 116.55 3.98, 140.34 4.97" stroke="#1e1e1e" stroke-width="2" fill="none"></path></g><g transform="translate(169.55054427928462 124.9056966416772) rotate(0 70.92133694332921 3.025697977998334)"><path d="M116.6 12.81 C124.18 9.39, 136.13 5.37, 140.34 4.97 M116.6 12.81 C122.72 11.68, 129.19 8.87, 140.34 4.97" stroke="#1e1e1e" stroke-width="2" fill="none"></path></g><g transform="translate(169.55054427928462 124.9056966416772) rotate(0 70.92133694332921 3.025697977998334)"><path d="M117.11 -4.28 C124.41 -1.1, 136.16 1.49, 140.34 4.97 M117.11 -4.28 C123 -0.61, 129.33 1.4, 140.34 4.97" stroke="#1e1e1e" stroke-width="2" fill="none"></path></g></g><mask></mask><g stroke-linecap="round" transform="translate(1243.8919830962222 879.3156842114402) rotate(0 819.5 165)"><path d="M32 0 C437.47 6.17, 844.9 6.48, 1607 0 M32 0 C547.84 0.61, 1063.85 1.07, 1607 0 M1607 0 C1626.87 -0.11, 1640.43 12.38, 1639 32 M1607 0 C1626.92 1.85, 1637.54 10.45, 1639 32 M1639 32 C1638.74 103.27, 1636.27 174.14, 1639 298 M1639 32 C1641.18 121.51, 1639.91 209.67, 1639 298 M1639 298 C1640.23 319.61, 1627.85 330.8, 1607 330 M1639 298 C1640.62 318.76, 1629.22 330.26, 1607 330 M1607 330 C1194.61 323.62, 782.59 323.75, 32 330 M1607 330 C1187 328.69, 767.69 328.6, 32 330 M32 330 C9.58 330.06, 1.91 320.77, 0 298 M32 330 C11.59 331.21, -1.76 319.39, 0 298 M0 298 C-2.89 199.36, -0.29 98.67, 0 32 M0 298 C-0.64 212.66, -2.08 127.31, 0 32 M0 32 C1.58 9.21, 12.05 1.17, 32 0 M0 32 C-1.19 9.07, 10.11 1.12, 32 0" stroke="#1e1e1e" stroke-width="2" fill="none"></path></g><g transform="translate(2013.6419830962222 884.3156842114402) rotate(0 49.75 12.5)"><text x="49.75" y="17.52" font-family="Virgil, Segoe UI Emoji" font-size="20px" fill="#1e1e1e" text-anchor="middle" style="white-space: pre;" direction="ltr" dominant-baseline="alphabetic">k8s nodes</text></g><g stroke-linecap="round" transform="translate(1935.4316656359047 415.77996992572616) rotate(0 123.95833333333326 44.79166666666663)"><path d="M22.4 0 C93.37 -1.72, 163.1 -1.98, 225.52 0 M22.4 0 C66.61 -0.7, 112.78 0.12, 225.52 0 M225.52 0 C239.22 1.61, 246.65 7.28, 247.92 22.4 M225.52 0 C239.68 -1.59, 245.86 9.2, 247.92 22.4 M247.92 22.4 C248.26 38.21, 246.31 53.05, 247.92 67.19 M247.92 22.4 C248.21 37.6, 247.36 52.92, 247.92 67.19 M247.92 67.19 C249.32 81.62, 241.22 89.81, 225.52 89.58 M247.92 67.19 C247.04 84.32, 238.17 89.33, 225.52 89.58 M225.52 89.58 C167.19 91.24, 109.61 88.42, 22.4 89.58 M225.52 89.58 C152.01 90.32, 80.32 90.93, 22.4 89.58 M22.4 89.58 C8.27 90.64, -1.53 82.17, 0 67.19 M22.4 89.58 C9.18 91.52, 2.22 80.49, 0 67.19 M0 67.19 C0.01 52.34, 1.55 36.72, 0 22.4 M0 67.19 C1.2 52.24, 1.1 39.32, 0 22.4 M0 22.4 C-1.04 6.08, 6.98 0.97, 22.4 0 M0 22.4 C2.16 9.25, 5.51 -2.25, 22.4 0" stroke="#1e1e1e" stroke-width="2" fill="none"></path></g><g transform="translate(1987.448333319824 448.0716365923927) rotate(0 71.94166564941406 12.499999999999886)"><text x="71.94166564941406" y="17.52" font-family="Virgil, Segoe UI Emoji" font-size="20px" fill="#1e1e1e" text-anchor="middle" style="white-space: pre;" direction="ltr" dominant-baseline="alphabetic">k8s api server</text></g><g stroke-linecap="round" transform="translate(1882.407856112095 317.3085568188808) rotate(0 171.28571428571422 206.71428571428567)"><path d="M32 0 C111.7 0.43, 194.38 -0.62, 310.57 0 M32 0 C113.55 -1.22, 195.56 -1.91, 310.57 0 M310.57 0 C331.24 -1.38, 340.78 12.18, 342.57 32 M310.57 0 C332.41 -1.86, 342.99 11.48, 342.57 32 M342.57 32 C341.62 160.24, 339.85 291.12, 342.57 381.43 M342.57 32 C342.48 141.58, 342.27 251.56, 342.57 381.43 M342.57 381.43 C341.81 404.68, 329.92 413.2, 310.57 413.43 M342.57 381.43 C342.21 403.31, 331.94 412.66, 310.57 413.43 M310.57 413.43 C202.52 412.64, 93.23 411.18, 32 413.43 M310.57 413.43 C226.44 415.37, 141.11 414.98, 32 413.43 M32 413.43 C12.16 415.12, 1.93 401.35, 0 381.43 M32 413.43 C12.05 415.59, -0.19 403.25, 0 381.43 M0 381.43 C-2.01 252.83, -1.79 127.63, 0 32 M0 381.43 C-1.91 301.51, -1.73 222.81, 0 32 M0 32 C1.88 12.22, 8.97 -1.95, 32 0 M0 32 C0.37 10.39, 8.98 0.87, 32 0" stroke="#1e1e1e" stroke-width="2" fill="none"></path></g><g transform="translate(2035.7435696348698 322.3085568188808) rotate(0 17.950000762939453 12.5)"><text x="17.950000762939453" y="17.52" font-family="Virgil, Segoe UI Emoji" font-size="20px" fill="#1e1e1e" text-anchor="middle" style="white-space: pre;" direction="ltr" dominant-baseline="alphabetic">k8s</text></g><g stroke-linecap="round" transform="translate(1285.3602370644762 953.9347318304879) rotate(0 188.33333333333337 107.5)"><path d="M32 0 C124.14 2.65, 217.67 0.75, 344.67 0 M32 0 C150.67 -0.29, 269.19 0.74, 344.67 0 M344.67 0 C366.44 -1.62, 377.03 11.38, 376.67 32 M344.67 0 C367.6 -1.44, 378.74 11.5, 376.67 32 M376.67 32 C375.44 66.17, 375.96 102.7, 376.67 183 M376.67 32 C376.86 74.5, 376.25 114.96, 376.67 183 M376.67 183 C376.35 204.81, 366.03 214.33, 344.67 215 M376.67 183 C378.76 203.77, 364.48 216.37, 344.67 215 M344.67 215 C238.18 215.16, 132.63 214.37, 32 215 M344.67 215 C234.89 215.66, 124.75 214.55, 32 215 M32 215 C11.87 216.88, -0.17 204.76, 0 183 M32 215 C12.15 217.27, 2.08 204.74, 0 183 M0 183 C-1.97 152.85, 0.65 118.89, 0 32 M0 183 C1.3 148.94, -0.49 112.36, 0 32 M0 32 C0.32 10.43, 9.2 0.76, 32 0 M0 32 C0.47 9.59, 8.49 2.15, 32 0" stroke="#1e1e1e" stroke-width="2" fill="none"></path></g><g transform="translate(1416.5019047483956 958.9347318304879) rotate(0 57.19166564941406 25)"><text x="57.19166564941406" y="17.52" font-family="Virgil, Segoe UI Emoji" font-size="20px" fill="#1e1e1e" text-anchor="middle" style="white-space: pre;" direction="ltr" dominant-baseline="alphabetic">k8s node</text><text x="57.19166564941406" y="42.519999999999996" font-family="Virgil, Segoe UI Emoji" font-size="20px" fill="#1e1e1e" text-anchor="middle" style="white-space: pre;" direction="ltr" dominant-baseline="alphabetic">arch=arm64</text></g><g stroke-linecap="round" transform="translate(1332.7173799216189 1027.4347318304879) rotate(0 137.57142857142856 40)"><path d="M20 0 C108.75 0.15, 194.65 0.66, 255.14 0 M255.14 0 C267.09 -1.79, 276.65 7.11, 275.14 20 M275.14 20 C276.61 27.51, 277.02 38.25, 275.14 60 M275.14 60 C273.73 71.33, 269.7 80.28, 255.14 80 M255.14 80 C189.83 82.04, 125.55 80.75, 20 80 M20 80 C8.59 78.01, -0.22 73.02, 0 60 M0 60 C1.82 46.56, -1.33 35.3, 0 20 M0 20 C0.81 7.44, 5.58 0.06, 20 0" stroke="#1e1e1e" stroke-width="2.5" fill="none" stroke-dasharray="8 10"></path></g><g transform="translate(1349.1554771942192 1042.4347318304879) rotate(0 121.13333129882812 25)"><text x="121.13333129882812" y="17.52" font-family="Virgil, Segoe UI Emoji" font-size="20px" fill="#1e1e1e" text-anchor="middle" style="white-space: pre;" direction="ltr" dominant-baseline="alphabetic">sandbox-container</text><text x="121.13333129882812" y="42.519999999999996" font-family="Virgil, Segoe UI Emoji" font-size="20px" fill="#1e1e1e" text-anchor="middle" style="white-space: pre;" direction="ltr" dominant-baseline="alphabetic">nodeSelector=arch:arm64</text></g><g stroke-linecap="round" transform="translate(2463.3602370644758 955.5180651638218) rotate(0 186.58333333333348 105.91666666666652)"><path d="M32 0 C104.17 -0.55, 179.4 1.06, 341.17 0 M32 0 C100.21 -1.23, 168.06 -0.53, 341.17 0 M341.17 0 C361.09 -2, 374.39 10.95, 373.17 32 M341.17 0 C361.95 0.92, 374.79 10.09, 373.17 32 M373.17 32 C375.26 80.04, 373.11 131.74, 373.17 179.83 M373.17 32 C374.1 79.6, 372.52 128.28, 373.17 179.83 M373.17 179.83 C373.98 201.94, 361.42 211.9, 341.17 211.83 M373.17 179.83 C375.37 202.82, 363.43 213.05, 341.17 211.83 M341.17 211.83 C273.24 214.87, 201.88 214.35, 32 211.83 M341.17 211.83 C219.77 213.01, 98.09 212.43, 32 211.83 M32 211.83 C8.84 212.52, 1.58 199.71, 0 179.83 M32 211.83 C12.25 213.18, -1.19 199.57, 0 179.83 M0 179.83 C0.83 137.34, -2.67 98.57, 0 32 M0 179.83 C1.29 136.78, 0.14 95.6, 0 32 M0 32 C-1.68 11.35, 8.69 0.55, 32 0 M0 32 C-1.91 9.79, 11.07 0.45, 32 0" stroke="#1e1e1e" stroke-width="2" fill="none"></path></g><g transform="translate(2545.901906274274 960.5180651638218) rotate(0 104.04166412353516 25)"><text x="104.04166412353516" y="17.52" font-family="Virgil, Segoe UI Emoji" font-size="20px" fill="#1e1e1e" text-anchor="middle" style="white-space: pre;" direction="ltr" dominant-baseline="alphabetic">k8s node</text><text x="104.04166412353516" y="42.519999999999996" font-family="Virgil, Segoe UI Emoji" font-size="20px" fill="#1e1e1e" text-anchor="middle" style="white-space: pre;" direction="ltr" dominant-baseline="alphabetic">arch=amd64,gpu=true</text></g><g stroke-linecap="round" transform="translate(2074.360237064476 955.0180651638218) rotate(0 186.08333333333326 106.41666666666652)"><path d="M32 0 C95.67 -0.22, 162.18 0.51, 340.17 0 M32 0 C104.71 -1.52, 178.87 -0.7, 340.17 0 M340.17 0 C361.02 0.8, 373.57 10.17, 372.17 32 M340.17 0 C362.38 0.26, 371.29 12.87, 372.17 32 M372.17 32 C372.47 61.89, 371.33 93.55, 372.17 180.83 M372.17 32 C371.59 73.37, 370.64 114, 372.17 180.83 M372.17 180.83 C374.08 203.6, 362.31 213.89, 340.17 212.83 M372.17 180.83 C370.41 202.22, 363.21 214.77, 340.17 212.83 M340.17 212.83 C219.28 214.05, 95.99 215.1, 32 212.83 M340.17 212.83 C216.7 213.47, 95.12 212.7, 32 212.83 M32 212.83 C12.05 214, -1.04 200.78, 0 180.83 M32 212.83 C10.11 213.95, 2.16 203.95, 0 180.83 M0 180.83 C1.21 147.35, 2.21 117.21, 0 32 M0 180.83 C0.57 143.48, 0.42 105.72, 0 32 M0 32 C-1.66 9.9, 11.02 0.39, 32 0 M0 32 C-1.3 11.54, 8.69 -0.73, 32 0" stroke="#1e1e1e" stroke-width="2" fill="none"></path></g><g transform="translate(2150.5602390989816 960.0180651638218) rotate(0 109.88333129882812 25)"><text x="109.88333129882812" y="17.52" font-family="Virgil, Segoe UI Emoji" font-size="20px" fill="#1e1e1e" text-anchor="middle" style="white-space: pre;" direction="ltr" dominant-baseline="alphabetic">k8s node</text><text x="109.88333129882812" y="42.519999999999996" font-family="Virgil, Segoe UI Emoji" font-size="20px" fill="#1e1e1e" text-anchor="middle" style="white-space: pre;" direction="ltr" dominant-baseline="alphabetic">arch=amd64,fgpa=true</text></g><g stroke-linecap="round" transform="translate(1935.2352370644767 559.2263984971548) rotate(0 122.79166666666652 44.79166666666674)"><path d="M22.4 0 C85.19 0.37, 150.87 -2.52, 223.19 0 M22.4 0 C62.34 0.11, 103.36 -0.48, 223.19 0 M223.19 0 C238.89 0.23, 244.82 9.38, 245.58 22.4 M223.19 0 C235.83 -0.26, 245.22 8.01, 245.58 22.4 M245.58 22.4 C244.94 34.57, 246.62 50.21, 245.58 67.19 M245.58 22.4 C246.3 38.29, 245.74 53.27, 245.58 67.19 M245.58 67.19 C244.06 82.17, 239.61 91.27, 223.19 89.58 M245.58 67.19 C247.81 80.49, 239.51 91.75, 223.19 89.58 M223.19 89.58 C166.38 92.37, 106.34 89.11, 22.4 89.58 M223.19 89.58 C156.69 88.8, 88.5 87.65, 22.4 89.58 M22.4 89.58 C6.98 90.56, 1.88 83.67, 0 67.19 M22.4 89.58 C5.51 87.34, 0.37 81.84, 0 67.19 M0 67.19 C-1.1 55.14, 1.7 45.2, 0 22.4 M0 67.19 C-0.39 51.84, 0.62 37.46, 0 22.4 M0 22.4 C-1.13 8.22, 5.74 -0.63, 22.4 0 M0 22.4 C-1.88 8.26, 5.26 -0.14, 22.4 0" stroke="#1e1e1e" stroke-width="2" fill="none"></path></g><g transform="translate(1990.4435678546783 591.5180651638209) rotate(0 67.58333587646484 12.5)"><text x="67.58333587646484" y="17.52" font-family="Virgil, Segoe UI Emoji" font-size="20px" fill="#1e1e1e" text-anchor="middle" style="white-space: pre;" direction="ltr" dominant-baseline="alphabetic">k8s scheduler</text></g><g stroke-linecap="round" transform="translate(1740.4872211914603 1026.4347318304879) rotate(0 137.57142857142867 40)"><path d="M20 0 C110.11 2.43, 203.81 0.99, 255.14 0 M255.14 0 C269.28 1.41, 274.64 7.43, 275.14 20 M275.14 20 C273 32.24, 274.67 45.39, 275.14 60 M275.14 60 C275.17 72.66, 270.3 79.51, 255.14 80 M255.14 80 C200.83 79.89, 145.27 82.42, 20 80 M20 80 C8.1 80.81, 1.06 71.81, 0 60 M0 60 C1.64 46.49, 0.91 37.69, 0 20 M0 20 C-0.17 7.09, 7.96 1.97, 20 0" stroke="#1e1e1e" stroke-width="2.5" fill="none" stroke-dasharray="8 10"></path></g><g transform="translate(1755.5336482370099 1041.4347318304879) rotate(0 122.5250015258789 25)"><text x="122.5250015258789" y="17.52" font-family="Virgil, Segoe UI Emoji" font-size="20px" fill="#1e1e1e" text-anchor="middle" style="white-space: pre;" direction="ltr" dominant-baseline="alphabetic">sandbox-container</text><text x="122.5250015258789" y="42.519999999999996" font-family="Virgil, Segoe UI Emoji" font-size="20px" fill="#1e1e1e" text-anchor="middle" style="white-space: pre;" direction="ltr" dominant-baseline="alphabetic">nodeSelector=arch:amd64</text></g><g stroke-linecap="round" transform="translate(2126.594364048603 1029.4347318304879) rotate(0 137.57142857142867 40)"><path d="M20 0 C105.62 1.66, 189.47 1.12, 255.14 0 M255.14 0 C268.71 -0.76, 277.06 4.68, 275.14 20 M275.14 20 C275.11 30.88, 276.9 42.61, 275.14 60 M275.14 60 C273.82 74.52, 269.29 80.78, 255.14 80 M255.14 80 C198.54 82.57, 140.41 80.61, 20 80 M20 80 C6.72 81.49, 1.69 75.27, 0 60 M0 60 C-0.41 51.25, 1.05 43.62, 0 20 M0 20 C1.81 7.02, 4.84 0.68, 20 0" stroke="#1e1e1e" stroke-width="2.5" fill="none" stroke-dasharray="8 10"></path></g><g transform="translate(2151.4907895682736 1044.4347318304879) rotate(0 112.67500305175781 25)"><text x="112.67500305175781" y="17.52" font-family="Virgil, Segoe UI Emoji" font-size="20px" fill="#1e1e1e" text-anchor="middle" style="white-space: pre;" direction="ltr" dominant-baseline="alphabetic">sandbox-container</text><text x="112.67500305175781" y="42.519999999999996" font-family="Virgil, Segoe UI Emoji" font-size="20px" fill="#1e1e1e" text-anchor="middle" style="white-space: pre;" direction="ltr" dominant-baseline="alphabetic">nodeSelector=fpga:true</text></g><g stroke-linecap="round" transform="translate(2527.1538878581273 1027.2323508781071) rotate(0 137.57142857142867 40)"><path d="M20 0 C107.28 -1.4, 195.79 -2.43, 255.14 0 M255.14 0 C268.25 -0.32, 275.62 6.69, 275.14 20 M275.14 20 C274.18 31.85, 276.32 42.1, 275.14 60 M275.14 60 C274.06 73.4, 270.39 81.43, 255.14 80 M255.14 80 C175.17 79.74, 96.53 80.12, 20 80 M20 80 C5.25 81.21, 1.88 73.17, 0 60 M0 60 C1.55 47.5, -2.08 34.98, 0 20 M0 20 C1.58 5.21, 8.05 1.17, 20 0" stroke="#1e1e1e" stroke-width="2.5" fill="none" stroke-dasharray="8 10"></path></g><g transform="translate(2557.8919805530913 1042.2323508781071) rotate(0 106.83333587646484 25)"><text x="106.83333587646484" y="17.52" font-family="Virgil, Segoe UI Emoji" font-size="20px" fill="#1e1e1e" text-anchor="middle" style="white-space: pre;" direction="ltr" dominant-baseline="alphabetic">sandbox-container</text><text x="106.83333587646484" y="42.519999999999996" font-family="Virgil, Segoe UI Emoji" font-size="20px" fill="#1e1e1e" text-anchor="middle" style="white-space: pre;" direction="ltr" dominant-baseline="alphabetic">nodeSelector=gpu:true</text></g><g stroke-linecap="round"><g transform="translate(2046.442845548664 737.4871282474526) rotate(0 -3.6701377500560284 68.41427798199402)"><path d="M-1.19 -0.13 C-2.37 22.53, -6.51 114.35, -7.53 137.11 M0.38 -1.25 C-0.93 21.54, -7.17 112.01, -8.58 135.14" stroke="#1e1e1e" stroke-width="2" fill="none"></path></g><g transform="translate(2046.442845548664 737.4871282474526) rotate(0 -3.6701377500560284 68.41427798199402)"><path d="M-15.58 111.14 C-13.74 117.18, -11.21 123.8, -8.58 135.14 M-15.58 111.14 C-14.16 118.15, -11.22 124.34, -8.58 135.14" stroke="#1e1e1e" stroke-width="2" fill="none"></path></g><g transform="translate(2046.442845548664 737.4871282474526) rotate(0 -3.6701377500560284 68.41427798199402)"><path d="M1.49 112.25 C-1.15 117.83, -3.09 124.16, -8.58 135.14 M1.49 112.25 C-1.65 118.92, -3.26 124.81, -8.58 135.14" stroke="#1e1e1e" stroke-width="2" fill="none"></path></g></g><mask></mask><g stroke-linecap="round"><g transform="translate(2231.1300783343177 1277.149017544774) rotate(0 302.5 1.25)"><path d="M1.15 0.86 C102.17 1.38, 504.99 2.86, 605.48 3.13 M0.29 0.27 C101.26 0.43, 503.76 0.74, 604.79 1.34" stroke="#1e1e1e" stroke-width="2" fill="none"></path></g><g transform="translate(2231.1300783343177 1277.149017544774) rotate(0 302.5 1.25)"><path d="M581.27 9.82 C588.49 8.32, 593.89 3.9, 604.79 1.34 M581.27 9.82 C589.29 6.35, 596.04 5.44, 604.79 1.34" stroke="#1e1e1e" stroke-width="2" fill="none"></path></g><g transform="translate(2231.1300783343177 1277.149017544774) rotate(0 302.5 1.25)"><path d="M581.32 -7.28 C588.53 -4.58, 593.92 -4.79, 604.79 1.34 M581.32 -7.28 C589.45 -5.57, 596.18 -1.32, 604.79 1.34" stroke="#1e1e1e" stroke-width="2" fill="none"></path></g></g><mask></mask><g stroke-linecap="round"><g transform="translate(1870.8748795367528 1274.7048229277823) rotate(0 -316.2499999999998 0)"><path d="M0.48 0.63 C-105.28 0.49, -528.07 -0.03, -633.42 0.03 M-0.72 -0.08 C-106.21 -0.09, -525.99 1.7, -631.19 1.58" stroke="#1e1e1e" stroke-width="2" fill="none"></path></g><g transform="translate(1870.8748795367528 1274.7048229277823) rotate(0 -316.2499999999998 0)"><path d="M-607.71 -7.01 C-615.88 -5.04, -626.18 1.37, -631.19 1.58 M-607.71 -7.01 C-616.05 -2.93, -625.76 -0.36, -631.19 1.58" stroke="#1e1e1e" stroke-width="2" fill="none"></path></g><g transform="translate(1870.8748795367528 1274.7048229277823) rotate(0 -316.2499999999998 0)"><path d="M-607.68 10.09 C-615.98 5.29, -626.29 4.94, -631.19 1.58 M-607.68 10.09 C-616.19 7.59, -625.92 3.6, -631.19 1.58" stroke="#1e1e1e" stroke-width="2" fill="none"></path></g></g><mask></mask><g transform="translate(1902.853359405166 1248.871517497783) rotate(0 141.51666259765625 22.5)"><text x="0" y="31.536" font-family="Virgil, Segoe UI Emoji" font-size="36px" fill="#1e1e1e" text-anchor="start" style="white-space: pre;" direction="ltr" dominant-baseline="alphabetic">Horizontal scale</text></g><g stroke-linecap="round"><g transform="translate(1609.3143544172285 503.91520212419323) rotate(0 130.87137168574122 34.5333000737287)"><path d="M-0.15 -1.15 C43.62 10.24, 219.16 56.46, 262.85 68.37 M-1.69 0.86 C41.99 12.39, 218.64 58.25, 262.49 69.53" stroke="#1e1e1e" stroke-width="2" fill="none"></path></g><g transform="translate(1609.3143544172285 503.91520212419323) rotate(0 130.87137168574122 34.5333000737287)"><path d="M237.6 71.93 C243.66 73.04, 252.39 70.89, 262.49 69.53 M237.6 71.93 C247.1 71.84, 256.99 70.22, 262.49 69.53" stroke="#1e1e1e" stroke-width="2" fill="none"></path></g><g transform="translate(1609.3143544172285 503.91520212419323) rotate(0 130.87137168574122 34.5333000737287)"><path d="M241.88 55.37 C246.57 61.79, 253.93 64.95, 262.49 69.53 M241.88 55.37 C249.77 61.88, 257.95 66.86, 262.49 69.53" stroke="#1e1e1e" stroke-width="2" fill="none"></path></g></g><mask></mask><g stroke-linecap="round" transform="translate(1675.0992822221829 35.27310700025441) rotate(0 180.19109477381926 75.90246987373644)"><path d="M32 0 C103.94 0.15, 172.43 -0.06, 328.38 0 M32 0 C125.25 0.17, 217.35 -0.15, 328.38 0 M328.38 0 C350.12 0.86, 360.17 11.93, 360.38 32 M328.38 0 C349.64 2.17, 360.91 9.03, 360.38 32 M360.38 32 C362.91 64.75, 360.8 96.85, 360.38 119.8 M360.38 32 C358.87 61.92, 359.94 91.92, 360.38 119.8 M360.38 119.8 C361.73 141.78, 349.85 150.41, 328.38 151.8 M360.38 119.8 C358.73 142.87, 348.27 152.96, 328.38 151.8 M328.38 151.8 C254.29 150.43, 181.52 149.98, 32 151.8 M328.38 151.8 C233.6 152.56, 138.99 153.23, 32 151.8 M32 151.8 C8.93 152.07, -0.58 142.19, 0 119.8 M32 151.8 C12.02 151.28, 1.68 139.8, 0 119.8 M0 119.8 C-1.31 93.61, -1.9 63.28, 0 32 M0 119.8 C1.03 93.57, 0.73 65.59, 0 32 M0 32 C-1.08 9.49, 9.18 0.66, 32 0 M0 32 C-2.08 10.1, 9.53 -0.42, 32 0" stroke="#1971c2" stroke-width="2" fill="none"></path></g><g transform="translate(1686.1403830995177 43.67557687399085) rotate(0 169.14999389648438 67.5)"><text x="169.14999389648438" y="31.536" font-family="Virgil, Segoe UI Emoji" font-size="36px" fill="#1971c2" text-anchor="middle" style="white-space: pre;" direction="ltr" dominant-baseline="alphabetic">Low-latency</text><text x="169.14999389648438" y="76.536" font-family="Virgil, Segoe UI Emoji" font-size="36px" fill="#1971c2" text-anchor="middle" style="white-space: pre;" direction="ltr" dominant-baseline="alphabetic">Common capabilities</text><text x="169.14999389648438" y="121.536" font-family="Virgil, Segoe UI Emoji" font-size="36px" fill="#1971c2" text-anchor="middle" style="white-space: pre;" direction="ltr" dominant-baseline="alphabetic">amd64</text></g><g stroke-linecap="round"><g transform="translate(1713.7118467753903 192.94031492734644) rotate(0 -152.19721467229544 66.34009537534587)"><path d="M-1.15 -1.14 C-52.14 20.86, -254.51 110.92, -305 133.12" stroke="#1971c2" stroke-width="2.5" fill="none" stroke-dasharray="1.5 8"></path></g><g transform="translate(1713.7118467753903 192.94031492734644) rotate(0 -152.19721467229544 66.34009537534587)"><path d="M-286.98 115.8 C-295.56 121.2, -299.77 129.27, -305 133.12" stroke="#1971c2" stroke-width="2.5" fill="none" stroke-dasharray="1.5 6"></path></g><g transform="translate(1713.7118467753903 192.94031492734644) rotate(0 -152.19721467229544 66.34009537534587)"><path d="M-280.06 131.43 C-291.42 130.83, -298.26 132.96, -305 133.12" stroke="#1971c2" stroke-width="2.5" fill="none" stroke-dasharray="1.5 6"></path></g></g><mask></mask><g stroke-linecap="round" transform="translate(2352.24402266247 680.361807939815) rotate(0 217.3555080709193 75.90246987373644)"><path d="M32 0 C107.04 1.18, 180.91 2.37, 402.71 0 M32 0 C138.29 -1.9, 245.31 -2.35, 402.71 0 M402.71 0 C424.24 -1.58, 435.89 10.97, 434.71 32 M402.71 0 C425.09 0.93, 433.23 12.17, 434.71 32 M434.71 32 C434.96 53.59, 434.77 77.61, 434.71 119.8 M434.71 32 C434.33 57.12, 434.69 82.34, 434.71 119.8 M434.71 119.8 C434.7 139.38, 426.04 152.29, 402.71 151.8 M434.71 119.8 C433.5 142.48, 422.17 150.37, 402.71 151.8 M402.71 151.8 C310.38 150.63, 216.37 149.89, 32 151.8 M402.71 151.8 C296.8 150.96, 191.72 152.07, 32 151.8 M32 151.8 C11.39 150.75, 0.07 140.08, 0 119.8 M32 151.8 C12.06 153.7, -0.95 141.49, 0 119.8 M0 119.8 C-0.64 93.68, 1.7 65.1, 0 32 M0 119.8 C0.01 89.96, 0.46 60.76, 0 32 M0 32 C-1.96 9.59, 11.01 1.81, 32 0 M0 32 C0.44 11.44, 12.94 -0.88, 32 0" stroke="#1971c2" stroke-width="2" fill="none"></path></g><g transform="translate(2391.9828620322173 711.2642778135516) rotate(0 177.61666870117188 45)"><text x="177.61666870117188" y="31.536" font-family="Virgil, Segoe UI Emoji" font-size="36px" fill="#1971c2" text-anchor="middle" style="white-space: pre;" direction="ltr" dominant-baseline="alphabetic">Higher-latency</text><text x="177.61666870117188" y="76.536" font-family="Virgil, Segoe UI Emoji" font-size="36px" fill="#1971c2" text-anchor="middle" style="white-space: pre;" direction="ltr" dominant-baseline="alphabetic">Sparse capabailities</text></g><g stroke-linecap="round"><g transform="translate(2445.293753555093 838.9239137413058) rotate(0 -31.149531444201102 94.15287581905568)"><path d="M1.07 -0.15 C-9.48 31.44, -52.74 157.93, -63.41 189.4" stroke="#1971c2" stroke-width="2.5" fill="none" stroke-dasharray="1.5 8"></path></g><g transform="translate(2445.293753555093 838.9239137413058) rotate(0 -31.149531444201102 94.15287581905568)"><path d="M-63.93 164.41 C-64.05 169.87, -61.83 177.92, -63.41 189.4" stroke="#1971c2" stroke-width="2.5" fill="none" stroke-dasharray="1.5 6"></path></g><g transform="translate(2445.293753555093 838.9239137413058) rotate(0 -31.149531444201102 94.15287581905568)"><path d="M-47.74 169.92 C-52.6 173.91, -55.12 180.35, -63.41 189.4" stroke="#1971c2" stroke-width="2.5" fill="none" stroke-dasharray="1.5 6"></path></g></g><mask></mask><g stroke-linecap="round" transform="translate(1681.221375770705 956.4456805443581) rotate(0 187.58333333333348 105.91666666666652)"><path d="M32 0 C134.79 0.16, 236.1 0.43, 343.17 0 M32 0 C147.57 1.97, 262.56 2.27, 343.17 0 M343.17 0 C362.97 0.64, 376.44 11.77, 375.17 32 M343.17 0 C365.35 -0.24, 373.2 10.34, 375.17 32 M375.17 32 C377.14 83.16, 376.97 140.15, 375.17 179.83 M375.17 32 C376.36 72.46, 375.15 114.06, 375.17 179.83 M375.17 179.83 C375.24 201.96, 363.85 212.84, 343.17 211.83 M375.17 179.83 C373.08 203.25, 364.16 213.91, 343.17 211.83 M343.17 211.83 C267.45 214.56, 192.86 214.45, 32 211.83 M343.17 211.83 C240.89 211.17, 137.81 211.17, 32 211.83 M32 211.83 C11.38 211.52, 1.01 199.73, 0 179.83 M32 211.83 C9.42 212.22, -1.65 202.21, 0 179.83 M0 179.83 C1.1 138.68, 0.71 92.99, 0 32 M0 179.83 C1.39 130.37, 0.43 80.13, 0 32 M0 32 C-1.91 11.56, 9.43 -0.44, 32 0 M0 32 C0.79 10.63, 8.7 -1.2, 32 0" stroke="#1e1e1e" stroke-width="2" fill="none"></path></g><g transform="translate(1810.221377042271 961.4456805443581) rotate(0 58.58333206176758 25)"><text x="58.58333206176758" y="17.52" font-family="Virgil, Segoe UI Emoji" font-size="20px" fill="#1e1e1e" text-anchor="middle" style="white-space: pre;" direction="ltr" dominant-baseline="alphabetic">k8s node</text><text x="58.58333206176758" y="42.519999999999996" font-family="Virgil, Segoe UI Emoji" font-size="20px" fill="#1e1e1e" text-anchor="middle" style="white-space: pre;" direction="ltr" dominant-baseline="alphabetic">arch=amd64</text></g></svg>