<svg version="1.1" xmlns="http://www.w3.org/2000/svg" viewBox="0 0 1780.126984126984 1211.2224999530092" width="1780.126984126984" height="1211.2224999530092">
  <!-- svg-source:excalidraw -->
  
  <defs>
    <style class="style-fonts">
      @font-face {
        font-family: "Virgil";
        src: url("https://excalidraw.com/Virgil.woff2");
      }
      @font-face {
        font-family: "Cascadia";
        src: url("https://excalidraw.com/Cascadia.woff2");
      }
      @font-face {
        font-family: "Assistant";
        src: url("https://excalidraw.com/Assistant-Regular.woff2");
      }
    </style>
    
  </defs>
  <g stroke-linecap="round" transform="translate(131.12698412698398 786.6666666666666) rotate(0 819.5 165.00000000000006)"><path d="M32 0 C647.55 0.37, 1262.49 0.52, 1607 0 M32 0 C398.54 1.42, 765.55 1.21, 1607 0 M1607 0 C1627.53 -1.17, 1640.12 11.19, 1639 32 M1607 0 C1628.78 -0.74, 1639.17 9.08, 1639 32 M1639 32 C1637.96 130.32, 1639.22 230.37, 1639 298 M1639 32 C1640.1 112.99, 1638.96 194.82, 1639 298 M1639 298 C1639.12 317.61, 1627.35 330.38, 1607 330 M1639 298 C1637.64 320.8, 1630.48 331.29, 1607 330 M1607 330 C1000.78 333.04, 392.98 333.22, 32 330 M1607 330 C1227.22 331.07, 847.73 330.81, 32 330 M32 330 C12.43 329.03, 1.77 319.96, 0 298 M32 330 C10.34 331.36, 1.83 319.68, 0 298 M0 298 C-2.5 217.8, -2.8 141.33, 0 32 M0 298 C-0.13 200.27, -0.2 101.02, 0 32 M0 32 C-0.5 12.19, 9.83 0.59, 32 0 M0 32 C-2.2 10.11, 11.09 2.24, 32 0" stroke="#1e1e1e" stroke-width="2" fill="none"></path></g><g transform="translate(900.876984126984 791.6666666666666) rotate(0 49.75 12.5)"><text x="49.75" y="17.52" font-family="Virgil, Segoe UI Emoji" font-size="20px" fill="#1e1e1e" text-anchor="middle" style="white-space: pre;" direction="ltr" dominant-baseline="alphabetic">k8s nodes</text></g><g stroke-linecap="round" transform="translate(17 220.6865079365079) rotate(0 34 37)"><path d="M37.23 0.08 C43.8 0.29, 52.04 4.69, 57.15 9.46 C62.27 14.24, 66.63 21.62, 67.93 28.73 C69.23 35.84, 67.71 45.25, 64.96 52.11 C62.2 58.97, 57.25 66.37, 51.41 69.89 C45.57 73.41, 36.57 74, 29.91 73.23 C23.26 72.45, 16.39 69.9, 11.48 65.22 C6.57 60.54, 1.92 52.41, 0.48 45.13 C-0.97 37.86, 0.16 28.24, 2.79 21.59 C5.42 14.93, 10.18 8.8, 16.25 5.22 C22.32 1.63, 35.38 0.65, 39.21 0.07 C43.03 -0.52, 39.27 1.07, 39.2 1.71 M29.41 -0.44 C35.26 -1.74, 43.48 1.26, 49.62 4.65 C55.75 8.04, 63.22 13.39, 66.23 19.92 C69.24 26.45, 68.99 36.69, 67.68 43.84 C66.37 50.99, 63.43 57.8, 58.37 62.82 C53.31 67.84, 43.97 72.77, 37.32 73.94 C30.67 75.12, 24.16 73.25, 18.48 69.87 C12.8 66.49, 6.45 60.45, 3.25 53.67 C0.05 46.88, -2.12 36.62, -0.72 29.16 C0.69 21.7, 6.32 13.95, 11.67 8.9 C17.02 3.85, 28.24 -0.04, 31.37 -1.15 C34.51 -2.26, 30.55 1.4, 30.47 2.24" stroke="#1e1e1e" stroke-width="2" fill="none"></path></g><g stroke-linecap="round" transform="translate(10 306.6865079365079) rotate(0 42 27)"><path d="M13.5 0 C27.69 -1.11, 45.89 -0.42, 70.5 0 M13.5 0 C28.85 -0.08, 45.28 -0.67, 70.5 0 M70.5 0 C79.22 -1.22, 85.72 4.15, 84 13.5 M70.5 0 C81.57 0.58, 83.72 5.23, 84 13.5 M84 13.5 C84.17 25.17, 82.17 31.86, 84 40.5 M84 13.5 C84.78 19.54, 83.2 26.21, 84 40.5 M84 40.5 C85.17 48.02, 78.76 55.48, 70.5 54 M84 40.5 C84.47 50.38, 77.68 55.27, 70.5 54 M70.5 54 C50.26 52.27, 34.52 53.1, 13.5 54 M70.5 54 C56.03 54.57, 41.15 54.05, 13.5 54 M13.5 54 C6.12 54.44, 1.47 50.29, 0 40.5 M13.5 54 C4.81 55.59, 0.46 48.08, 0 40.5 M0 40.5 C1.53 33.48, -1.1 24.48, 0 13.5 M0 40.5 C0.79 33.93, 0.27 26.99, 0 13.5 M0 13.5 C-1.16 2.86, 5.69 -1.47, 13.5 0 M0 13.5 C-0.6 3.58, 5.92 1.38, 13.5 0" stroke="#1e1e1e" stroke-width="2" fill="none"></path></g><g stroke-linecap="round" transform="translate(268.9999999999999 228.35317460317447) rotate(0 196.5 204)"><path d="M32 0 C110.29 1.79, 188.79 0.47, 361 0 M32 0 C121.79 -1.01, 209.98 -0.45, 361 0 M361 0 C383.1 1.36, 392.3 11.65, 393 32 M361 0 C383.7 -0.2, 392.02 12.53, 393 32 M393 32 C392.67 110.47, 393.42 185.84, 393 376 M393 32 C393.16 102.01, 392.5 172.2, 393 376 M393 376 C394.1 396.01, 382.37 408.7, 361 408 M393 376 C390.72 398.9, 380.86 407.85, 361 408 M361 408 C261.68 409.71, 160.65 409.48, 32 408 M361 408 C246.11 409.21, 130.39 409.31, 32 408 M32 408 C10.83 406.35, 0.66 396.53, 0 376 M32 408 C9.67 406.09, -1.43 396.04, 0 376 M0 376 C1.44 260.05, -0.17 147.46, 0 32 M0 376 C1.97 280.46, 1.8 186.05, 0 32 M0 32 C1.31 8.84, 11.69 -1.07, 32 0 M0 32 C1.23 11.44, 9.14 0.98, 32 0" stroke="#1e1e1e" stroke-width="2" fill="none"></path></g><g transform="translate(444.2250003814696 233.35317460317447) rotate(0 21.274999618530273 12.5)"><text x="21.274999618530273" y="17.52" font-family="Virgil, Segoe UI Emoji" font-size="20px" fill="#1e1e1e" text-anchor="middle" style="white-space: pre;" direction="ltr" dominant-baseline="alphabetic">Eval</text></g><g stroke-linecap="round" transform="translate(340.9999999999999 309.35317460317447) rotate(0 115.5 51.5)"><path d="M25.75 0 C82.44 -2.87, 136.85 -2.92, 205.25 0 M25.75 0 C94.14 -0.29, 162.62 -0.2, 205.25 0 M205.25 0 C220.92 0.34, 231.27 9.66, 231 25.75 M205.25 0 C220.98 1.82, 228.88 7.11, 231 25.75 M231 25.75 C231.97 42, 232.95 53.53, 231 77.25 M231 25.75 C231.22 44.75, 229.89 63.6, 231 77.25 M231 77.25 C231.05 96.19, 223.08 104.24, 205.25 103 M231 77.25 C230.16 94.24, 222.93 102.4, 205.25 103 M205.25 103 C137.37 102.38, 73.02 103.51, 25.75 103 M205.25 103 C165.83 101.46, 126.55 101.49, 25.75 103 M25.75 103 C7.84 103.28, -1.69 92.71, 0 77.25 M25.75 103 C10.51 100.98, 1.02 96.11, 0 77.25 M0 77.25 C0.39 56.76, 0.53 38.25, 0 25.75 M0 77.25 C-0.43 66.41, -1.23 54.45, 0 25.75 M0 25.75 C0.03 8.94, 8.15 -1.54, 25.75 0 M0 25.75 C1.11 10.35, 7.74 -1.37, 25.75 0" stroke="#1e1e1e" stroke-width="2" fill="none"></path></g><g transform="translate(413.79999923706043 335.85317460317447) rotate(0 42.70000076293945 25)"><text x="42.70000076293945" y="17.52" font-family="Virgil, Segoe UI Emoji" font-size="20px" fill="#1e1e1e" text-anchor="middle" style="white-space: pre;" direction="ltr" dominant-baseline="alphabetic">Eval App</text><text x="42.70000076293945" y="42.519999999999996" font-family="Virgil, Segoe UI Emoji" font-size="20px" fill="#1e1e1e" text-anchor="middle" style="white-space: pre;" direction="ltr" dominant-baseline="alphabetic">(nodejs)</text></g><g stroke-linecap="round" transform="translate(343.9999999999999 453.35317460317447) rotate(0 118 56)"><path d="M28 0 C63.86 1.97, 103.23 1.41, 208 0 M28 0 C81.1 0.82, 136.18 -0.32, 208 0 M208 0 C228.37 2, 234.44 10.37, 236 28 M208 0 C226.99 1.19, 236.18 10.09, 236 28 M236 28 C238.01 45.39, 236.22 64.41, 236 84 M236 28 C236.8 42.77, 236.89 58.04, 236 84 M236 84 C236.59 102.98, 225.9 112.2, 208 112 M236 84 C236.16 104.37, 227.42 110.2, 208 112 M208 112 C145.44 110.04, 82.02 110.53, 28 112 M208 112 C163.33 112.44, 120.89 113.01, 28 112 M28 112 C9.29 111.8, -1.15 104.2, 0 84 M28 112 C9.75 114.15, -1.43 104.15, 0 84 M0 84 C-1.56 72.54, -0.4 60.44, 0 28 M0 84 C-1.22 70.16, -0.61 58.19, 0 28 M0 28 C-0.42 11.2, 8.02 -1.9, 28 0 M0 28 C-1.32 10.65, 11.24 -2.03, 28 0" stroke="#1e1e1e" stroke-width="2" fill="none"></path></g><g transform="translate(388.44166564941395 484.35317460317447) rotate(0 73.55833435058594 25)"><text x="73.55833435058594" y="17.52" font-family="Virgil, Segoe UI Emoji" font-size="20px" fill="#1e1e1e" text-anchor="middle" style="white-space: pre;" direction="ltr" dominant-baseline="alphabetic">SQL Database</text><text x="73.55833435058594" y="42.519999999999996" font-family="Virgil, Segoe UI Emoji" font-size="20px" fill="#1e1e1e" text-anchor="middle" style="white-space: pre;" direction="ltr" dominant-baseline="alphabetic">(postgres)</text></g><g stroke-linecap="round" transform="translate(822.6666666666662 323.1309523809522) rotate(0 123.95833333333326 44.79166666666663)"><path d="M22.4 0 C70.16 1.29, 116.99 -0.52, 225.52 0 M22.4 0 C77.29 -1.92, 132.88 -0.78, 225.52 0 M225.52 0 C239.42 -1.61, 246.99 9.4, 247.92 22.4 M225.52 0 C240.86 -1.46, 247.06 6.5, 247.92 22.4 M247.92 22.4 C248.4 38.86, 249.76 55.64, 247.92 67.19 M247.92 22.4 C248.61 40.4, 247.74 56.09, 247.92 67.19 M247.92 67.19 C247.17 83.52, 239.11 90.44, 225.52 89.58 M247.92 67.19 C246.31 79.95, 242.06 88.51, 225.52 89.58 M225.52 89.58 C178.65 87.95, 135.49 87.22, 22.4 89.58 M225.52 89.58 C157.07 88.56, 89.45 87.9, 22.4 89.58 M22.4 89.58 C7.57 89.03, -0.21 83.14, 0 67.19 M22.4 89.58 C8.5 89.43, -2.07 81.92, 0 67.19 M0 67.19 C1.59 51.99, -1.92 35.04, 0 22.4 M0 67.19 C0.92 56.28, 0.69 45.61, 0 22.4 M0 22.4 C-0.09 7.29, 8.23 1.95, 22.4 0 M0 22.4 C-0.38 8.1, 7.93 2.15, 22.4 0" stroke="#1e1e1e" stroke-width="2" fill="none"></path></g><g transform="translate(874.6833343505854 355.4226190476188) rotate(0 71.94166564941406 12.5)"><text x="71.94166564941406" y="17.52" font-family="Virgil, Segoe UI Emoji" font-size="20px" fill="#1e1e1e" text-anchor="middle" style="white-space: pre;" direction="ltr" dominant-baseline="alphabetic">k8s api server</text></g><g stroke-linecap="round"><g transform="translate(572.9999999999999 372.60388277887887) rotate(0 94.66666666666657 5.021801556399765)"><path d="M1.17 0.02 C32.58 1.97, 157.63 9.28, 188.91 11.08 M0.32 -1.01 C31.49 0.67, 156.49 7.86, 187.74 9.5" stroke="#1e1e1e" stroke-width="2" fill="none"></path></g><g transform="translate(572.9999999999999 372.60388277887887) rotate(0 94.66666666666657 5.021801556399765)"><path d="M163.81 16.74 C171.96 13.36, 181.73 10.81, 187.74 9.5 M163.81 16.74 C171.74 13.51, 180.28 10.48, 187.74 9.5" stroke="#1e1e1e" stroke-width="2" fill="none"></path></g><g transform="translate(572.9999999999999 372.60388277887887) rotate(0 94.66666666666657 5.021801556399765)"><path d="M164.76 -0.33 C172.51 2.06, 181.95 5.27, 187.74 9.5 M164.76 -0.33 C172.3 2.64, 180.49 5.81, 187.74 9.5" stroke="#1e1e1e" stroke-width="2" fill="none"></path></g></g><mask></mask><g stroke-linecap="round" transform="translate(769.6428571428568 220.15476190476164) rotate(0 171.28571428571422 206.7142857142857)"><path d="M32 0 C98.93 0.7, 163.37 -0.19, 310.57 0 M32 0 C108.18 -0.58, 185.06 -0.06, 310.57 0 M310.57 0 C330.65 -1.5, 342.27 9.58, 342.57 32 M310.57 0 C333.22 0.17, 340.68 10.46, 342.57 32 M342.57 32 C341.35 158.86, 341.02 288.87, 342.57 381.43 M342.57 32 C343.71 133.87, 344.1 236.01, 342.57 381.43 M342.57 381.43 C341.97 404.31, 332.45 414.17, 310.57 413.43 M342.57 381.43 C341.3 405.02, 331.96 414.5, 310.57 413.43 M310.57 413.43 C199.23 410.46, 88.17 412.22, 32 413.43 M310.57 413.43 C217.67 412.72, 125.34 412.59, 32 413.43 M32 413.43 C12.06 412.24, 0.73 404.06, 0 381.43 M32 413.43 C8.77 413.58, -1.48 404.56, 0 381.43 M0 381.43 C1.66 303.73, 1.36 228.03, 0 32 M0 381.43 C-0.9 277.18, -0.06 173.31, 0 32 M0 32 C-0.78 11.93, 10.29 1.85, 32 0 M0 32 C-0.1 11.85, 8.39 -2.29, 32 0" stroke="#1e1e1e" stroke-width="2" fill="none"></path></g><g transform="translate(922.9785706656315 225.15476190476164) rotate(0 17.950000762939453 12.5)"><text x="17.950000762939453" y="17.52" font-family="Virgil, Segoe UI Emoji" font-size="20px" fill="#1e1e1e" text-anchor="middle" style="white-space: pre;" direction="ltr" dominant-baseline="alphabetic">k8s</text></g><g stroke-linecap="round" transform="translate(172.59523809523773 861.2857142857143) rotate(0 188.33333333333337 107.49999999999994)"><path d="M32 0 C136.06 -1.46, 239.25 -2.76, 344.67 0 M32 0 C103.98 -1.55, 176.73 -2.86, 344.67 0 M344.67 0 C365.17 0.76, 376.4 11.8, 376.67 32 M344.67 0 C365.6 -1.89, 377.43 9.61, 376.67 32 M376.67 32 C377.42 78.7, 377.34 126.68, 376.67 183 M376.67 32 C376.25 73.47, 375.97 116.25, 376.67 183 M376.67 183 C374.84 205.51, 365.17 215.37, 344.67 215 M376.67 183 C374.82 206.61, 364.74 214.69, 344.67 215 M344.67 215 C231.86 212.99, 120.36 211.77, 32 215 M344.67 215 C245.89 217.05, 147.09 217.1, 32 215 M32 215 C9.48 215.27, -1.03 205.93, 0 183 M32 215 C12.48 213.84, -0.49 206.32, 0 183 M0 183 C-2.06 145.38, -0.76 106.43, 0 32 M0 183 C-1.51 149.75, -0.59 115.06, 0 32 M0 32 C-1.53 11.29, 11.04 -1.33, 32 0 M0 32 C-1.73 12.24, 8.62 -0.05, 32 0" stroke="#1e1e1e" stroke-width="2" fill="none"></path></g><g transform="translate(303.73690577915704 866.2857142857143) rotate(0 57.19166564941406 25)"><text x="57.19166564941406" y="17.52" font-family="Virgil, Segoe UI Emoji" font-size="20px" fill="#1e1e1e" text-anchor="middle" style="white-space: pre;" direction="ltr" dominant-baseline="alphabetic">k8s node</text><text x="57.19166564941406" y="42.519999999999996" font-family="Virgil, Segoe UI Emoji" font-size="20px" fill="#1e1e1e" text-anchor="middle" style="white-space: pre;" direction="ltr" dominant-baseline="alphabetic">arch=arm64</text></g><g stroke-linecap="round" transform="translate(219.9523809523804 934.7857142857142) rotate(0 137.57142857142856 40)"><path d="M20 0 C70.13 -0.21, 121.22 0.57, 255.14 0 M255.14 0 C268.75 1.65, 276.56 4.75, 275.14 20 M275.14 20 C274.64 31.22, 275.01 41.59, 275.14 60 M275.14 60 C273.95 72.97, 266.97 81.45, 255.14 80 M255.14 80 C178.04 77.06, 99.67 79.11, 20 80 M20 80 C8.53 79.37, 1.5 72.53, 0 60 M0 60 C1.06 45.56, -0.96 31.96, 0 20 M0 20 C-1.65 5.73, 7.73 0.37, 20 0" stroke="#1e1e1e" stroke-width="2.5" fill="none" stroke-dasharray="8 10"></path></g><g transform="translate(236.39047822498094 949.7857142857142) rotate(0 121.13333129882812 25)"><text x="121.13333129882812" y="17.52" font-family="Virgil, Segoe UI Emoji" font-size="20px" fill="#1e1e1e" text-anchor="middle" style="white-space: pre;" direction="ltr" dominant-baseline="alphabetic">sandbox-container</text><text x="121.13333129882812" y="42.519999999999996" font-family="Virgil, Segoe UI Emoji" font-size="20px" fill="#1e1e1e" text-anchor="middle" style="white-space: pre;" direction="ltr" dominant-baseline="alphabetic">nodeSelector=arch:arm64</text></g><g stroke-linecap="round" transform="translate(567.7619047619045 862.8690476190476) rotate(0 187.58333333333337 105.91666666666657)"><path d="M32 0 C108.58 -2.06, 187.84 -2.46, 343.17 0 M32 0 C144 1.33, 255.52 0.74, 343.17 0 M343.17 0 C366.02 1.14, 374.44 11.88, 375.17 32 M343.17 0 C365.78 -0.54, 373.41 11.39, 375.17 32 M375.17 32 C375.55 77.33, 374.14 125.94, 375.17 179.83 M375.17 32 C375.5 84.7, 376.32 137.27, 375.17 179.83 M375.17 179.83 C375.07 202.49, 365.09 211.01, 343.17 211.83 M375.17 179.83 C377.43 201.52, 366.12 213.77, 343.17 211.83 M343.17 211.83 C257.75 210.86, 169.02 211.58, 32 211.83 M343.17 211.83 C264.55 213.69, 184.55 212.94, 32 211.83 M32 211.83 C12.39 213.62, 1.48 199.55, 0 179.83 M32 211.83 C9.23 210.1, 1.65 201.18, 0 179.83 M0 179.83 C2.67 134.36, -0.09 85.66, 0 32 M0 179.83 C0.83 125.93, 1.07 72.74, 0 32 M0 32 C-1.99 9.82, 11.12 1.11, 32 0 M0 32 C1.93 11.67, 9.08 -0.38, 32 0" stroke="#1e1e1e" stroke-width="2" fill="none"></path></g><g transform="translate(696.7619060334703 867.8690476190476) rotate(0 58.583332061767635 25)"><text x="58.58333206176758" y="17.52" font-family="Virgil, Segoe UI Emoji" font-size="20px" fill="#1e1e1e" text-anchor="middle" style="white-space: pre;" direction="ltr" dominant-baseline="alphabetic">k8s node</text><text x="58.58333206176758" y="42.519999999999996" font-family="Virgil, Segoe UI Emoji" font-size="20px" fill="#1e1e1e" text-anchor="middle" style="white-space: pre;" direction="ltr" dominant-baseline="alphabetic">arch=amd64</text></g><g stroke-linecap="round" transform="translate(1350.5952380952376 862.8690476190477) rotate(0 186.58333333333337 105.91666666666652)"><path d="M32 0 C128.11 -1.03, 225.48 -2.33, 341.17 0 M32 0 C132.11 -0.29, 230.53 -0.41, 341.17 0 M341.17 0 C363.97 -0.18, 372.36 8.98, 373.17 32 M341.17 0 C364.58 1.98, 372.52 11.42, 373.17 32 M373.17 32 C373.14 78.97, 375.86 125.92, 373.17 179.83 M373.17 32 C374.48 68.68, 374.41 106, 373.17 179.83 M373.17 179.83 C372.87 201.05, 362.08 210.99, 341.17 211.83 M373.17 179.83 C374.75 199.92, 360.86 212.44, 341.17 211.83 M341.17 211.83 C244.03 213, 147.91 211.46, 32 211.83 M341.17 211.83 C260.96 211.54, 179.67 211.14, 32 211.83 M32 211.83 C9.06 213.14, -0.13 202.06, 0 179.83 M32 211.83 C9.72 211.5, 1.81 201.68, 0 179.83 M0 179.83 C1.11 142.09, -0.92 103.65, 0 32 M0 179.83 C-0.42 136.22, -0.16 93.99, 0 32 M0 32 C1.16 10.82, 11.9 1.4, 32 0 M0 32 C0.84 12.94, 9.63 -1.76, 32 0" stroke="#1e1e1e" stroke-width="2" fill="none"></path></g><g transform="translate(1433.136907305036 867.8690476190477) rotate(0 104.04166412353516 25)"><text x="104.04166412353516" y="17.52" font-family="Virgil, Segoe UI Emoji" font-size="20px" fill="#1e1e1e" text-anchor="middle" style="white-space: pre;" direction="ltr" dominant-baseline="alphabetic">k8s node</text><text x="104.04166412353516" y="42.519999999999996" font-family="Virgil, Segoe UI Emoji" font-size="20px" fill="#1e1e1e" text-anchor="middle" style="white-space: pre;" direction="ltr" dominant-baseline="alphabetic">arch=amd64,gpu=true</text></g><g stroke-linecap="round" transform="translate(961.595238095238 862.3690476190476) rotate(0 186.08333333333326 106.41666666666657)"><path d="M32 0 C101.46 -2.42, 169.68 -1.75, 340.17 0 M32 0 C148.2 -0.57, 264.78 -1.23, 340.17 0 M340.17 0 C360.63 0.16, 372.47 11.49, 372.17 32 M340.17 0 C362.92 0.06, 372.65 12.44, 372.17 32 M372.17 32 C374.89 70.6, 373.48 107.43, 372.17 180.83 M372.17 32 C371.9 85.22, 370.55 140.2, 372.17 180.83 M372.17 180.83 C370.19 200.3, 362.94 211.77, 340.17 212.83 M372.17 180.83 C370.48 202.36, 360.71 211.79, 340.17 212.83 M340.17 212.83 C249.69 212.3, 157.46 210.35, 32 212.83 M340.17 212.83 C257.23 212.11, 175.52 211.3, 32 212.83 M32 212.83 C11.88 213.14, 0.21 200.8, 0 180.83 M32 212.83 C12.65 212.09, 1.98 204.32, 0 180.83 M0 180.83 C0.71 140.6, -1.08 98.31, 0 32 M0 180.83 C-0.54 141.75, 0.33 102.15, 0 32 M0 32 C-1.61 11.27, 9.19 -0.04, 32 0 M0 32 C2.01 10.63, 8.87 0.85, 32 0" stroke="#1e1e1e" stroke-width="2" fill="none"></path></g><g transform="translate(1037.795240129743 867.3690476190476) rotate(0 109.88333129882812 25)"><text x="109.88333129882812" y="17.52" font-family="Virgil, Segoe UI Emoji" font-size="20px" fill="#1e1e1e" text-anchor="middle" style="white-space: pre;" direction="ltr" dominant-baseline="alphabetic">k8s node</text><text x="109.88333129882812" y="42.519999999999996" font-family="Virgil, Segoe UI Emoji" font-size="20px" fill="#1e1e1e" text-anchor="middle" style="white-space: pre;" direction="ltr" dominant-baseline="alphabetic">arch=amd64,fgpa=true</text></g><g stroke-linecap="round" transform="translate(822.4702380952384 466.57738095238085) rotate(0 122.79166666666663 44.791666666666686)"><path d="M22.4 0 C101.97 1.18, 181.43 2.17, 223.19 0 M22.4 0 C62.47 -1.7, 103.71 -1.88, 223.19 0 M223.19 0 C239.73 0.34, 247.13 8.44, 245.58 22.4 M223.19 0 C239.47 0.47, 244.53 5.86, 245.58 22.4 M245.58 22.4 C247.08 39.62, 245.18 56.95, 245.58 67.19 M245.58 22.4 C245.96 34.5, 245.6 47.29, 245.58 67.19 M245.58 67.19 C245.24 83.75, 238.74 91.06, 223.19 89.58 M245.58 67.19 C244.4 83.25, 237.84 91.6, 223.19 89.58 M223.19 89.58 C153.36 88.22, 84.1 89.05, 22.4 89.58 M223.19 89.58 C147.98 88.82, 71.53 89.17, 22.4 89.58 M22.4 89.58 C8.78 89.72, 1.81 81.12, 0 67.19 M22.4 89.58 C5.89 90.93, -0.32 82.64, 0 67.19 M0 67.19 C-1.43 52.4, 1.54 33.86, 0 22.4 M0 67.19 C0.14 50.29, -0.43 31.49, 0 22.4 M0 22.4 C-1.6 5.66, 8.07 1.54, 22.4 0 M0 22.4 C-2.17 8.44, 7.71 -1.54, 22.4 0" stroke="#1e1e1e" stroke-width="2" fill="none"></path></g><g transform="translate(877.6785688854401 498.86904761904754) rotate(0 67.58333587646484 12.5)"><text x="67.58333587646484" y="17.52" font-family="Virgil, Segoe UI Emoji" font-size="20px" fill="#1e1e1e" text-anchor="middle" style="white-space: pre;" direction="ltr" dominant-baseline="alphabetic">k8s scheduler</text></g><g stroke-linecap="round" transform="translate(627.7222222222218 933.7857142857142) rotate(0 137.57142857142856 40)"><path d="M20 0 C80.27 -0.27, 141.81 1.36, 255.14 0 M255.14 0 C270.16 -1.32, 276.4 6.48, 275.14 20 M275.14 20 C273.76 27.68, 275.45 36.59, 275.14 60 M275.14 60 C276.39 73.41, 268.88 79.63, 255.14 80 M255.14 80 C178.2 81.17, 101.54 80.81, 20 80 M20 80 C7.16 80.23, -0.54 75.06, 0 60 M0 60 C1.88 45.31, 2.2 31.95, 0 20 M0 20 C-0.35 6.9, 6.74 1.96, 20 0" stroke="#1e1e1e" stroke-width="2.5" fill="none" stroke-dasharray="8 10"></path></g><g transform="translate(642.7686492677716 948.7857142857142) rotate(0 122.5250015258789 25)"><text x="122.5250015258789" y="17.52" font-family="Virgil, Segoe UI Emoji" font-size="20px" fill="#1e1e1e" text-anchor="middle" style="white-space: pre;" direction="ltr" dominant-baseline="alphabetic">sandbox-container</text><text x="122.5250015258789" y="42.519999999999996" font-family="Virgil, Segoe UI Emoji" font-size="20px" fill="#1e1e1e" text-anchor="middle" style="white-space: pre;" direction="ltr" dominant-baseline="alphabetic">nodeSelector=arch:amd64</text></g><g stroke-linecap="round" transform="translate(1013.8293650793645 936.7857142857142) rotate(0 137.57142857142856 40)"><path d="M20 0 C87.94 1.04, 154.22 0.17, 255.14 0 M255.14 0 C267.27 1.1, 274.7 5.31, 275.14 20 M275.14 20 C276.41 36.5, 274.67 50.79, 275.14 60 M275.14 60 C276.32 73.38, 268.49 80.77, 255.14 80 M255.14 80 C194.88 77.83, 133.36 77.28, 20 80 M20 80 C7 81.21, -1.93 73.35, 0 60 M0 60 C-1.44 52.25, 1.29 43.07, 0 20 M0 20 C0.46 5.98, 7.1 1.77, 20 0" stroke="#1e1e1e" stroke-width="2.5" fill="none" stroke-dasharray="8 10"></path></g><g transform="translate(1038.7257905990355 951.7857142857142) rotate(0 112.67500305175781 25)"><text x="112.67500305175781" y="17.52" font-family="Virgil, Segoe UI Emoji" font-size="20px" fill="#1e1e1e" text-anchor="middle" style="white-space: pre;" direction="ltr" dominant-baseline="alphabetic">sandbox-container</text><text x="112.67500305175781" y="42.519999999999996" font-family="Virgil, Segoe UI Emoji" font-size="20px" fill="#1e1e1e" text-anchor="middle" style="white-space: pre;" direction="ltr" dominant-baseline="alphabetic">nodeSelector=fpga:true</text></g><g stroke-linecap="round" transform="translate(1414.3888888888887 934.5833333333331) rotate(0 137.57142857142856 40)"><path d="M20 0 C103.27 3.16, 182.72 1.09, 255.14 0 M255.14 0 C269.27 0.96, 275.14 5.92, 275.14 20 M275.14 20 C275.98 36.67, 274.49 50.63, 275.14 60 M275.14 60 C276.01 73.74, 269.82 80.73, 255.14 80 M255.14 80 C200.96 80.91, 148.38 81.93, 20 80 M20 80 C5.31 80.91, 0.05 72.19, 0 60 M0 60 C-0.12 45.24, 0.15 32.18, 0 20 M0 20 C0.89 7.78, 6.31 1.86, 20 0" stroke="#1e1e1e" stroke-width="2.5" fill="none" stroke-dasharray="8 10"></path></g><g transform="translate(1445.1269815838527 949.5833333333331) rotate(0 106.83333587646484 25)"><text x="106.83333587646484" y="17.52" font-family="Virgil, Segoe UI Emoji" font-size="20px" fill="#1e1e1e" text-anchor="middle" style="white-space: pre;" direction="ltr" dominant-baseline="alphabetic">sandbox-container</text><text x="106.83333587646484" y="42.519999999999996" font-family="Virgil, Segoe UI Emoji" font-size="20px" fill="#1e1e1e" text-anchor="middle" style="white-space: pre;" direction="ltr" dominant-baseline="alphabetic">nodeSelector=gpu:true</text></g><g stroke-linecap="round"><g transform="translate(101.46031746031747 335.1326982634766) rotate(0 116.49999999999994 -1.2994078493583459)"><path d="M0.93 -0.29 C39.74 -0.51, 195.43 -1.6, 234 -2.16 M-0.05 -1.49 C38.6 -2.01, 195.03 -3.81, 233.58 -4.05" stroke="#1e1e1e" stroke-width="2" fill="none"></path></g><g transform="translate(101.46031746031747 335.1326982634766) rotate(0 116.49999999999994 -1.2994078493583459)"><path d="M210.17 4.72 C218.98 2.75, 229.43 -3.42, 233.58 -4.05 M210.17 4.72 C214.27 3.46, 221 0.06, 233.58 -4.05" stroke="#1e1e1e" stroke-width="2" fill="none"></path></g><g transform="translate(101.46031746031747 335.1326982634766) rotate(0 116.49999999999994 -1.2994078493583459)"><path d="M210.01 -12.38 C218.76 -7.61, 229.28 -7.03, 233.58 -4.05 M210.01 -12.38 C214.02 -10.05, 220.79 -9.86, 233.58 -4.05" stroke="#1e1e1e" stroke-width="2" fill="none"></path></g></g><mask></mask><g stroke-linecap="round"><g transform="translate(452.7936507936507 416.66666666666663) rotate(0 1.6666666666666288 17.5)"><path d="M0.36 0.53 C0.93 6.43, 2.46 29.53, 2.94 35.32 M-0.13 0.33 C0.66 6.07, 3.48 28.84, 3.97 34.52" stroke="#1e1e1e" stroke-width="2" fill="none"></path></g><g transform="translate(452.7936507936507 416.66666666666663) rotate(0 1.6666666666666288 17.5)"><path d="M-3.78 18.75 C-1.29 21.43, 0.01 25.19, 3.97 34.52 M-3.78 18.75 C-1.04 24.32, 1.58 30.24, 3.97 34.52" stroke="#1e1e1e" stroke-width="2" fill="none"></path></g><g transform="translate(452.7936507936507 416.66666666666663) rotate(0 1.6666666666666288 17.5)"><path d="M8.17 17.46 C8.13 20.45, 6.91 24.49, 3.97 34.52 M8.17 17.46 C6.65 23.54, 4.99 29.92, 3.97 34.52" stroke="#1e1e1e" stroke-width="2" fill="none"></path></g></g><mask></mask><g stroke-linecap="round"><g transform="translate(933.1862748188852 640.3333333333331) rotate(0 -3.620903733126852 70.66666666666674)"><path d="M0.55 -0.91 C-0.56 22.86, -5.59 118.93, -6.82 142.48 M-0.62 1.23 C-1.84 24.71, -6.43 117.64, -7.55 140.96" stroke="#1e1e1e" stroke-width="2" fill="none"></path></g><g transform="translate(933.1862748188852 640.3333333333331) rotate(0 -3.620903733126852 70.66666666666674)"><path d="M-14.94 117.08 C-14.35 124.62, -8.81 131.5, -7.55 140.96 M-14.94 117.08 C-13.91 122.69, -10.71 128.29, -7.55 140.96" stroke="#1e1e1e" stroke-width="2" fill="none"></path></g><g transform="translate(933.1862748188852 640.3333333333331) rotate(0 -3.620903733126852 70.66666666666674)"><path d="M2.14 117.91 C-2.19 125.29, -1.55 131.94, -7.55 140.96 M2.14 117.91 C-0.58 123.36, -1.12 128.78, -7.55 140.96" stroke="#1e1e1e" stroke-width="2" fill="none"></path></g></g><mask></mask><g stroke-linecap="round" transform="translate(456.126984126984 10) rotate(0 119.16666666666669 70)"><path d="M32 0 C67.4 -0.01, 105.77 -0.28, 206.33 0 M206.33 0 C226.81 -0.18, 239.49 9.77, 238.33 32 M238.33 32 C238.41 61.74, 237.79 90.38, 238.33 108 M238.33 108 C236.51 127.54, 229.63 138.79, 206.33 140 M206.33 140 C139.99 142.27, 78.65 139.15, 32 140 M32 140 C8.97 139.54, -1.95 128.39, 0 108 M0 108 C-0.06 88.87, 1.2 70.23, 0 32 M0 32 C0.68 9.06, 11.13 0.36, 32 0" stroke="#9c36b5" stroke-width="2.5" fill="none" stroke-dasharray="1.5 8"></path></g><g transform="translate(461.77698056659995 30) rotate(0 113.51667022705078 50)"><text x="113.51667022705078" y="17.52" font-family="Virgil, Segoe UI Emoji" font-size="20px" fill="#9c36b5" text-anchor="middle" style="white-space: pre;" direction="ltr" dominant-baseline="alphabetic">Eval injects the proper</text><text x="113.51667022705078" y="42.519999999999996" font-family="Virgil, Segoe UI Emoji" font-size="20px" fill="#9c36b5" text-anchor="middle" style="white-space: pre;" direction="ltr" dominant-baseline="alphabetic">attribute for the </text><text x="113.51667022705078" y="67.52" font-family="Virgil, Segoe UI Emoji" font-size="20px" fill="#9c36b5" text-anchor="middle" style="white-space: pre;" direction="ltr" dominant-baseline="alphabetic">sandbox according to </text><text x="113.51667022705078" y="92.52" font-family="Virgil, Segoe UI Emoji" font-size="20px" fill="#9c36b5" text-anchor="middle" style="white-space: pre;" direction="ltr" dominant-baseline="alphabetic">user's request</text></g><g stroke-linecap="round" transform="translate(1175.6269841269836 362.66666666666663) rotate(0 119.16666666666674 70)"><path d="M32 0 C78.1 1.51, 122.07 -0.63, 206.33 0 M206.33 0 C228.78 0.08, 238.05 9.31, 238.33 32 M238.33 32 C239.61 55.08, 236.61 81.82, 238.33 108 M238.33 108 C236.48 129.26, 225.7 141.13, 206.33 140 M206.33 140 C153.84 139.49, 106.43 139.25, 32 140 M32 140 C9.47 140.63, 0.09 128.67, 0 108 M0 108 C-1.96 87.18, 0.81 65.4, 0 32 M0 32 C-1.7 10.78, 10.91 -1.31, 32 0" stroke="#9c36b5" stroke-width="2.5" fill="none" stroke-dasharray="1.5 8"></path></g><g transform="translate(1182.9019805665994 370.16666666666663) rotate(0 111.89167022705078 62.5)"><text x="111.89167022705078" y="17.52" font-family="Virgil, Segoe UI Emoji" font-size="20px" fill="#9c36b5" text-anchor="middle" style="white-space: pre;" direction="ltr" dominant-baseline="alphabetic">The k8s scheduler </text><text x="111.89167022705078" y="42.519999999999996" font-family="Virgil, Segoe UI Emoji" font-size="20px" fill="#9c36b5" text-anchor="middle" style="white-space: pre;" direction="ltr" dominant-baseline="alphabetic">take into account the</text><text x="111.89167022705078" y="67.52" font-family="Virgil, Segoe UI Emoji" font-size="20px" fill="#9c36b5" text-anchor="middle" style="white-space: pre;" direction="ltr" dominant-baseline="alphabetic">constraint expressed </text><text x="111.89167022705078" y="92.52" font-family="Virgil, Segoe UI Emoji" font-size="20px" fill="#9c36b5" text-anchor="middle" style="white-space: pre;" direction="ltr" dominant-baseline="alphabetic">by the request to find</text><text x="111.89167022705078" y="117.52" font-family="Virgil, Segoe UI Emoji" font-size="20px" fill="#9c36b5" text-anchor="middle" style="white-space: pre;" direction="ltr" dominant-baseline="alphabetic">suitable node  </text></g><g stroke-linecap="round"><g transform="translate(1168.126984126984 449.51613350946326) rotate(0 -44.33333333333326 25.907164773436165)"><path d="M-0.51 -0.95 C-15.06 7.58, -73.53 41.99, -88.15 50.96" stroke="#9c36b5" stroke-width="2.5" fill="none" stroke-dasharray="1.5 8"></path></g><g transform="translate(1168.126984126984 449.51613350946326) rotate(0 -44.33333333333326 25.907164773436165)"><path d="M-72.39 31.55 C-77.63 36.83, -81.11 41.24, -88.15 50.96" stroke="#9c36b5" stroke-width="2.5" fill="none" stroke-dasharray="1.5 6"></path></g><g transform="translate(1168.126984126984 449.51613350946326) rotate(0 -44.33333333333326 25.907164773436165)"><path d="M-63.6 46.22 C-70.85 48.08, -76.35 49.1, -88.15 50.96" stroke="#9c36b5" stroke-width="2.5" fill="none" stroke-dasharray="1.5 6"></path></g></g><mask></mask><g stroke-linecap="round" transform="translate(1256.9603174603171 596.6666666666666) rotate(0 119.16666666666674 70)"><path d="M32 0 C83.37 -1.59, 139.99 1.15, 206.33 0 M206.33 0 C227.15 -1.98, 238.84 10.6, 238.33 32 M238.33 32 C238.5 58.28, 238.2 81.54, 238.33 108 M238.33 108 C236.41 129.79, 228.9 141.67, 206.33 140 M206.33 140 C144.76 137.67, 81.61 139.29, 32 140 M32 140 C11.85 140.36, 1.91 129.88, 0 108 M0 108 C-1.37 89.12, -2.61 72.16, 0 32 M0 32 C-0.75 10.49, 9.78 -1.22, 32 0" stroke="#9c36b5" stroke-width="2.5" fill="none" stroke-dasharray="1.5 8"></path></g><g transform="translate(1267.7436528281555 604.1666666666666) rotate(0 108.38333129882812 62.5)"><text x="108.38333129882812" y="17.52" font-family="Virgil, Segoe UI Emoji" font-size="20px" fill="#9c36b5" text-anchor="middle" style="white-space: pre;" direction="ltr" dominant-baseline="alphabetic">The k8s nodes have </text><text x="108.38333129882812" y="42.519999999999996" font-family="Virgil, Segoe UI Emoji" font-size="20px" fill="#9c36b5" text-anchor="middle" style="white-space: pre;" direction="ltr" dominant-baseline="alphabetic">label matching their </text><text x="108.38333129882812" y="67.52" font-family="Virgil, Segoe UI Emoji" font-size="20px" fill="#9c36b5" text-anchor="middle" style="white-space: pre;" direction="ltr" dominant-baseline="alphabetic">capabilities that can </text><text x="108.38333129882812" y="92.52" font-family="Virgil, Segoe UI Emoji" font-size="20px" fill="#9c36b5" text-anchor="middle" style="white-space: pre;" direction="ltr" dominant-baseline="alphabetic">be used by Eval for </text><text x="108.38333129882812" y="117.52" font-family="Virgil, Segoe UI Emoji" font-size="20px" fill="#9c36b5" text-anchor="middle" style="white-space: pre;" direction="ltr" dominant-baseline="alphabetic">sandbox requests</text></g><g stroke-linecap="round"><g transform="translate(1263.5557086857107 743.3333333333333) rotate(0 -33.98644603279013 21.166666666666742)"><path d="M1.2 -0.94 C-9.86 5.98, -55.83 34.69, -67.47 41.71" stroke="#1e1e1e" stroke-width="2.5" fill="none" stroke-dasharray="1.5 8"></path></g><g transform="translate(1263.5557086857107 743.3333333333333) rotate(0 -33.98644603279013 21.166666666666742)"><path d="M-51.95 22.12 C-56.64 27.09, -59.26 29.06, -67.47 41.71" stroke="#1e1e1e" stroke-width="2.5" fill="none" stroke-dasharray="1.5 6"></path></g><g transform="translate(1263.5557086857107 743.3333333333333) rotate(0 -33.98644603279013 21.166666666666742)"><path d="M-42.99 36.68 C-49.52 38.78, -53.97 37.79, -67.47 41.71" stroke="#1e1e1e" stroke-width="2.5" fill="none" stroke-dasharray="1.5 6"></path></g></g><mask></mask><g stroke-linecap="round"><g transform="translate(582.1269841269841 155.33333333333337) rotate(0 32 111.99999999999994)"><path d="M-0.39 0.12 C10.34 37.33, 53.91 186.37, 64.66 223.77" stroke="#1971c2" stroke-width="2.5" fill="none" stroke-dasharray="1.5 8"></path></g><g transform="translate(582.1269841269841 155.33333333333337) rotate(0 32 111.99999999999994)"><path d="M49.9 203.59 C55 211.31, 59.22 216.94, 64.66 223.77" stroke="#1971c2" stroke-width="2.5" fill="none" stroke-dasharray="1.5 6"></path></g><g transform="translate(582.1269841269841 155.33333333333337) rotate(0 32 111.99999999999994)"><path d="M66.33 198.82 C66.1 208.05, 64.96 215.23, 64.66 223.77" stroke="#1971c2" stroke-width="2.5" fill="none" stroke-dasharray="1.5 6"></path></g></g><mask></mask><g stroke-linecap="round"><g transform="translate(1118.365079365079 1184.5) rotate(0 302.4999999999999 1.25)"><path d="M0.58 0.26 C101.54 0.85, 505.39 3.12, 606.08 3.65 M-0.57 -0.64 C100.29 -0.37, 504.97 1.76, 605.7 2.12" stroke="#1e1e1e" stroke-width="2" fill="none"></path></g><g transform="translate(1118.365079365079 1184.5) rotate(0 302.4999999999999 1.25)"><path d="M582.17 10.57 C590.38 9.46, 599.63 4.35, 605.7 2.12 M582.17 10.57 C590.49 6.93, 599.34 3.78, 605.7 2.12" stroke="#1e1e1e" stroke-width="2" fill="none"></path></g><g transform="translate(1118.365079365079 1184.5) rotate(0 302.4999999999999 1.25)"><path d="M582.24 -6.53 C590.45 -1.99, 599.67 -1.44, 605.7 2.12 M582.24 -6.53 C590.52 -3.73, 599.34 -0.44, 605.7 2.12" stroke="#1e1e1e" stroke-width="2" fill="none"></path></g></g><mask></mask><g stroke-linecap="round"><g transform="translate(758.1098805675144 1182.0558053830082) rotate(0 -316.24999999999983 0)"><path d="M-0.32 -0.98 C-105.75 -0.95, -527.91 -0.51, -633.25 -0.49 M1.71 1.11 C-103.27 1.37, -525.14 0.97, -630.93 0.8" stroke="#1e1e1e" stroke-width="2" fill="none"></path></g><g transform="translate(758.1098805675144 1182.0558053830082) rotate(0 -316.24999999999983 0)"><path d="M-607.43 -7.73 C-614.86 -6.96, -619.76 -3.38, -630.93 0.8 M-607.43 -7.73 C-612.33 -5.19, -618.21 -4.91, -630.93 0.8" stroke="#1e1e1e" stroke-width="2" fill="none"></path></g><g transform="translate(758.1098805675144 1182.0558053830082) rotate(0 -316.24999999999983 0)"><path d="M-607.45 9.37 C-614.77 5.97, -619.67 5.38, -630.93 0.8 M-607.45 9.37 C-612.22 7.97, -618.1 4.31, -630.93 0.8" stroke="#1e1e1e" stroke-width="2" fill="none"></path></g></g><mask></mask><g transform="translate(790.0883604359277 1156.2224999530092) rotate(0 141.56666564941406 22.5)"><text x="0" y="31.536" font-family="Virgil, Segoe UI Emoji" font-size="36px" fill="#1e1e1e" text-anchor="start" style="white-space: pre;" direction="ltr" dominant-baseline="alphabetic">Horizontal scale</text></g></svg>