<svg xmlns="http://www.w3.org/2000/svg" xmlns:xlink="http://www.w3.org/1999/xlink" x="0px" y="0px" width="48px" height="48px" viewBox="0 0 48 48"><g transform="translate(0, 0)"><path fill="#E6E6E6" d="M46,5H2C1.447,5,1,5.447,1,6v36c0,0.313,0.147,0.609,0.397,0.799c0.251,0.188,0.576,0.249,0.877,0.163
	l13.684-3.91l15.69,5.885C31.762,44.979,31.881,45,32,45c0.047,0,0.095-0.003,0.142-0.01l14-2C46.634,42.92,47,42.498,47,42V6
	C47,5.447,46.553,5,46,5z"></path>
<path fill="#335262" d="M16,30.414l-4.707-4.707c-0.391-0.391-0.391-1.023,0-1.414L16,19.586L17.414,21l-4,4l4,4L16,30.414z"></path>
<path fill="#335262" d="M32,30.414L30.586,29l4-4l-4-4L32,19.586l4.707,4.707c0.391,0.391,0.391,1.023,0,1.414L32,30.414z"></path>
<rect x="14.754" y="24" transform="matrix(0.2427 -0.9701 0.9701 0.2427 -6.0765 42.2165)" fill="#335262" width="18.493" height="2"></rect>
<path opacity="0.8" fill="#EFD358" d="M32,11H16c-0.553,0-1-0.447-1-1V2c0-0.553,0.447-1,1-1h16c0.553,0,1,0.447,1,1v8
	C33,10.553,32.553,11,32,11z"></path></g></svg>