<svg xmlns="http://www.w3.org/2000/svg" xmlns:xlink="http://www.w3.org/1999/xlink" x="0px" y="0px" width="48px" height="48px" viewBox="0 0 48 48"><g transform="translate(0, 0)"><path fill="#A67C52" d="M41,47H7c-1.105,0-2-0.895-2-2V3c0-1.105,0.895-2,2-2h34c1.105,0,2,0.895,2,2v42C43,46.105,42.105,47,41,47z
	"></path>
<path fill="#E6E6E6" d="M28,43H10c-0.553,0-1-0.448-1-1V6c0-0.552,0.447-1,1-1h28c0.553,0,1,0.448,1,1v26l-7,4L28,43z"></path>
<path fill="#B3B3B3" d="M28,43v-9c0-1.105,0.895-2,2-2h9L28,43z"></path>
<path fill="#B3B3B3" d="M32,16H16c-0.552,0-1-0.448-1-1s0.448-1,1-1h16c0.552,0,1,0.448,1,1S32.552,16,32,16z"></path>
<path fill="#B3B3B3" d="M32,24H16c-0.552,0-1-0.448-1-1s0.448-1,1-1h16c0.552,0,1,0.448,1,1S32.552,24,32,24z"></path>
<path fill="#B3B3B3" d="M24,32h-8c-0.552,0-1-0.448-1-1s0.448-1,1-1h8c0.552,0,1,0.448,1,1S24.552,32,24,32z"></path></g></svg>