<svg xmlns="http://www.w3.org/2000/svg" xmlns:xlink="http://www.w3.org/1999/xlink" x="0px" y="0px" width="48px" height="48px" viewBox="0 0 48 48"><g transform="translate(0, 0)"><path fill="#E6E6E6" d="M42,1H6C5.448,1,5,1.448,5,2v44c0,0.552,0.448,1,1,1h36c0.552,0,1-0.448,1-1V2C43,1.448,42.552,1,42,1z"></path>
<path fill="#444444" d="M35,29H20c-0.552,0-1-0.448-1-1s0.448-1,1-1h15c0.552,0,1,0.448,1,1S35.552,29,35,29z"></path>
<path fill="#B3B3B3" d="M29,37h-9c-0.552,0-1-0.448-1-1s0.448-1,1-1h9c0.552,0,1,0.448,1,1S29.552,37,29,37z"></path>
<path fill="#B3B3B3" d="M31,21H20c-0.552,0-1-0.448-1-1s0.448-1,1-1h11c0.552,0,1,0.448,1,1S31.552,21,31,21z"></path>
<path fill="#444444" d="M35,13H20c-0.552,0-1-0.448-1-1s0.448-1,1-1h15c0.552,0,1,0.448,1,1S35.552,13,35,13z"></path>
<path fill="#B3B3B3" d="M14,22c-1.103,0-2-0.897-2-2s0.897-2,2-2s2,0.897,2,2S15.103,22,14,22z"></path>
<path fill="#4DA34D" d="M14,30c-1.103,0-2-0.897-2-2s0.897-2,2-2s2,0.897,2,2S15.103,30,14,30z"></path>
<path fill="#B3B3B3" d="M14,38c-1.103,0-2-0.897-2-2s0.897-2,2-2s2,0.897,2,2S15.103,38,14,38z"></path>
<path fill="#4DA34D" d="M14,14c-1.103,0-2-0.897-2-2s0.897-2,2-2s2,0.897,2,2S15.103,14,14,14z"></path></g></svg>