<svg xmlns="http://www.w3.org/2000/svg" xmlns:xlink="http://www.w3.org/1999/xlink" x="0px" y="0px" width="48px" height="48px" viewBox="0 0 48 48"><g transform="translate(0, 0)"><path fill="#444444" d="M28,35H2c-0.553,0-1-0.447-1-1V2c0-0.553,0.447-1,1-1h26c0.553,0,1,0.447,1,1v32C29,34.553,28.553,35,28,35z
	"></path>
<rect x="5" y="5" fill="#E86C60" width="5" height="2"></rect>
<rect x="9" y="11" fill="#EFD358" width="7" height="2"></rect>
<rect x="12" y="17" fill="#FFFFFF" width="10" height="2"></rect>
<rect x="9" y="23" fill="#EFD358" width="7" height="2"></rect>
<rect x="5" y="29" fill="#E86C60" width="5" height="2"></rect>
<path fill="#E6E6E6" d="M46,47H20c-0.553,0-1-0.447-1-1V14c0-0.553,0.447-1,1-1h26c0.553,0,1,0.447,1,1v32
	C47,46.553,46.553,47,46,47z"></path>
<path fill="#B3B3B3" d="M41,18H25c-0.553,0-1,0.447-1,1v22c0,0.553,0.447,1,1,1h16c0.553,0,1-0.447,1-1V19
	C42,18.447,41.553,18,41,18z M40,20v4H26v-4H40z M26,40V26h14v14H26z"></path></g></svg>